<svg width="512" height="513" fill="none" xmlns="http://www.w3.org/2000/svg"><g clip-path="url(#a)" fill="#004358"><path d="M404.828 184.318c2.444-.949 6.363-1.532 11.756-1.751v-4.485c-6.274.437-15.824.655-28.652.655-11.953 0-21.429-.218-28.426-.655v4.485c5.393.219 9.312.802 11.756 1.751 2.444.949 4.119 2.697 5.027 5.243.915 2.553 1.373 6.636 1.373 12.247v45.178h20.766v-45.178c0-5.611.458-9.694 1.372-12.247.908-2.546 2.584-4.294 5.028-5.243Zm-6.4 110.38h-20.766v18.194c0 5.618-.458 9.7-1.373 12.247-.908 2.553-2.583 4.304-5.027 5.253-2.444.949-6.363 1.532-11.756 1.751v4.475c6.997-.437 16.473-.656 28.426-.656 12.903 0 22.453.219 28.652.656v-4.475c-5.393-.219-9.312-.802-11.756-1.751-2.444-.949-4.12-2.7-5.028-5.253-.914-2.547-1.372-6.629-1.372-12.247v-18.194Zm-93.593 0h-20.767v18.194c0 5.618-.457 9.7-1.372 12.247-.908 2.553-2.584 4.304-5.028 5.253-2.444.949-6.363 1.532-11.756 1.751v4.475c6.274-.437 15.825-.656 28.652-.656 12.097 0 21.572.219 28.426.656v-4.475c-5.393-.219-9.311-.802-11.755-1.751-2.444-.949-4.12-2.7-5.028-5.253-.915-2.547-1.372-6.629-1.372-12.247v-18.194Zm-20.767-47.712h20.767v-45.178c0-5.611.457-9.694 1.372-12.247.908-2.546 2.584-4.294 5.028-5.243 2.444-.949 6.362-1.532 11.755-1.751v-4.485c-6.854.437-16.329.655-28.426.655-12.902 0-22.453-.218-28.652-.655v4.485c5.393.219 9.312.802 11.756 1.751 2.444.949 4.12 2.697 5.028 5.243.915 2.553 1.372 6.636 1.372 12.247v45.178Zm-55.112 0H208.19v-45.178c0-5.611-.458-9.694-1.373-12.247-.908-2.546-2.583-4.294-5.027-5.243-2.444-.949-6.363-1.532-11.756-1.751v-4.485c6.997.437 16.473.655 28.426.655 12.828 0 22.378-.218 28.652-.655v4.485c-5.393.219-9.312.802-11.756 1.751-2.444.949-4.12 2.697-5.028 5.243-.914 2.553-1.372 6.636-1.372 12.247v45.178Zm-93.593 0v-45.178c0-5.611.457-9.694 1.372-12.247.908-2.546 2.584-4.294 5.028-5.243 2.444-.949 6.362-1.532 11.755-1.751v-4.485c-6.854.437-16.329.655-28.426.655-12.902 0-22.453-.218-28.652-.655v4.485c5.393.219 9.312.802 11.756 1.751 2.444.949 4.12 2.697 5.028 5.243.915 2.553 1.372 6.636 1.372 12.247v45.178h20.767Zm-20.767 47.712v18.194c0 5.618-.457 9.7-1.372 12.247-.908 2.553-2.584 4.304-5.028 5.253-2.444.949-6.363 1.532-11.756 1.751v4.475c6.274-.437 15.825-.656 28.652-.656 12.097 0 21.572.219 28.426.656v-4.475c-5.393-.219-9.311-.802-11.755-1.751-2.444-.949-4.12-2.7-5.028-5.253-.915-2.547-1.372-6.629-1.372-12.247v-18.194h-20.767Zm93.594 0h20.766v18.194c0 5.618.458 9.7 1.372 12.247.908 2.553 2.584 4.304 5.028 5.253 2.444.949 6.363 1.532 11.756 1.751v4.475c-6.199-.437-15.749-.656-28.652-.656-11.953 0-21.429.219-28.426.656v-4.475c5.393-.219 9.312-.802 11.756-1.751 2.444-.949 4.119-2.7 5.027-5.253.915-2.547 1.373-6.629 1.373-12.247v-18.194Zm-86.125-19.772c0 1.157.399 1.352.86 1.352.409 0 1.085-.093 1.567-.308-.328-.266-.369-.788-.369-1.658v-10.456a28.02 28.02 0 0 0-.154-3.01c-.829 0-1.679.113-2.048.205.123 1.239.144 2.048.144 3.133v3.625h-7.68v-3.953c0-1.024-.041-2.088-.154-3.01-.87 0-1.741.113-2.109.205a20.16 20.16 0 0 1 .215 3.133v10.742c0 1.157.368 1.352.829 1.352.369 0 1.004-.093 1.464-.308-.215-.266-.245-.788-.245-1.658v-5.305h7.68v5.919Zm18.882-5.98c1.147 0 1.352-.215 1.352-.502 0-.236-.072-.614-.307-.87-.267.122-.789.153-1.659.153h-4.629c-.327 0-.655 0-.962.021v-3.82c0-.614-.021-1.198-.062-1.771.369-.021.738-.021 1.157-.021h5.673c1.137 0 1.332-.215 1.332-.522 0-.236-.072-.614-.287-.891-.256.174-.809.195-1.68.195h-5.365c-1.024 0-2.12.041-3.031.153.174 1.219.215 2.069.215 3.164v10.885c0 .461.092.943.194 1.219a26.451 26.451 0 0 1 3.144-.154h5.673c1.157 0 1.352-.235 1.352-.522 0-.256-.062-.655-.308-.932-.256.215-.778.236-1.658.236h-5.387c-.327 0-.635 0-.962.02v-6.021c.42-.02.829-.02 1.29-.02h4.915Zm20.327 5.98c.46 1.157.962 1.352 1.443 1.352.441 0 1.117-.093 1.506-.308-.389-.266-.656-.768-1.004-1.658l-4.127-10.456c-.409-1.024-.849-2.088-1.31-3.01-.891 0-1.741.113-2.089.205a24.52 24.52 0 0 1-1.024 3.133l-4.24 10.742c-.174.481-.235.778-.235.983 0 .276.194.369.44.369.348 0 .912-.093 1.393-.308 0-.348.133-.87.44-1.658l.973-2.591h6.574l1.26 3.205Zm-4.209-10.742 2.468 6.308h-5.612l2.775-7.219c.133.287.236.583.369.911Zm23.112 12.002c1.147 0 1.331-.235 1.331-.522 0-.256-.072-.656-.287-.932-.266.215-.788.235-1.659.235h-5.171c-.328 0-.635 0-.962.021v-11.131c0-1.024-.041-2.109-.154-3.031-.85 0-1.741.113-2.109.225.174 1.239.215 2.048.215 3.134v10.936c0 .461.082.942.194 1.219a26.333 26.333 0 0 1 3.144-.154h5.458Zm17.254-14.05c1.137 0 1.331-.235 1.331-.543 0-.245-.061-.634-.287-.942-.256.226-.808.267-1.679.267h-7.721c-1.024 0-2.12.041-3.031.153 0 .451.103.932.215 1.219 1.219-.133 2.048-.154 3.144-.154h1.915c.071.717.071 1.311.071 2.048v10.742c0 1.157.41 1.352.871 1.352.409 0 1.065-.093 1.546-.308-.307-.266-.369-.788-.369-1.658v-10.456c0-.583-.02-1.146-.041-1.72h4.035Zm18.483 12.79c0 1.157.389 1.352.85 1.352.41 0 1.086-.093 1.567-.308-.328-.266-.369-.788-.369-1.658v-10.456c0-1.024-.041-2.088-.153-3.01-.83 0-1.68.113-2.048.205.133 1.239.153 2.048.153 3.133v3.625h-7.68v-3.953c0-1.024-.051-2.088-.153-3.01-.871 0-1.751.113-2.12.205a20.16 20.16 0 0 1 .215 3.133v10.742c0 1.157.379 1.352.829 1.352.379 0 1.004-.093 1.465-.308-.215-.266-.236-.788-.236-1.658v-5.305h7.68v5.919Zm30.853 0c0 1.157.389 1.352.85 1.352.41 0 1.086-.093 1.567-.308-.328-.266-.369-.788-.369-1.658v-10.456c0-1.024-.041-2.088-.153-3.01-.83 0-1.68.113-2.048.205.123 1.239.153 2.048.153 3.133v3.625h-7.68v-3.953c0-1.024-.051-2.088-.153-3.01-.881 0-1.751.113-2.12.205a20.16 20.16 0 0 1 .215 3.133v10.742c0 1.157.369 1.352.83 1.352.368 0 1.003-.093 1.464-.308-.215-.266-.236-.788-.236-1.658v-5.305h7.68v5.919Zm18.873-5.98c1.157 0 1.351-.215 1.351-.502 0-.236-.071-.614-.307-.87-.266.122-.788.153-1.659.153h-4.628c-.328 0-.656 0-.953.021v-3.82c0-.614-.03-1.198-.071-1.771.368-.021.747-.021 1.157-.021h5.673c1.136 0 1.331-.215 1.331-.522 0-.236-.061-.614-.287-.891-.256.174-.809.195-1.679.195h-5.366c-1.024 0-2.119.041-3.031.153.174 1.219.215 2.069.215 3.164v10.885c0 .461.092.943.195 1.219a26.425 26.425 0 0 1 3.143-.154h5.673c1.158 0 1.352-.235 1.352-.522 0-.256-.061-.655-.307-.932-.256.215-.778.236-1.649.236h-5.396c-.328 0-.635 0-.953.02v-6.021c.41-.02.82-.02 1.28-.02h4.916Zm10.014 1.392c0 3.564 2.437 5.96 6.062 5.96 3.799 0 6.37-2.529 6.37-6.236v-6.206c0-1.024-.041-2.088-.154-3.01-.829 0-1.679.113-2.048.205.133 1.239.154 2.048.154 3.133v6.072c0 2.857-1.68 4.803-4.147 4.803-2.489 0-4.189-1.966-4.189-4.843v-6.36c0-1.024-.041-2.088-.153-3.01-.871 0-1.741.113-2.12.205.174 1.239.225 2.048.225 3.133v6.154Zm20.982 4.588c0 1.157.379 1.352.829 1.352.379 0 1.004-.092 1.465-.307-.215-.266-.236-.789-.236-1.659v-4.362c.41-.021.83-.021 1.28-.021h1.362l3.134 4.956c.706 1.219 1.31 1.393 1.812 1.393.461 0 1.045-.092 1.444-.307-.461-.287-.85-.83-1.423-1.72l-2.939-4.608c2.068-.635 3.358-2.223 3.358-4.322 0-2.611-2.078-4.403-5.15-4.403h-3.185c-.829.021-1.618.102-1.966.195.174 1.239.215 2.048.215 3.143v10.67Zm2.007-12.789h2.755c1.914 0 3.225 1.351 3.225 3.317 0 1.925-1.259 3.257-3.144 3.257h-1.832c-.328 0-.646 0-.953.02v-4.802c0-.594-.02-1.198-.051-1.792Zm16.221 12.79c0 1.157.389 1.351.849 1.351.41 0 1.065-.092 1.547-.307-.308-.266-.348-.788-.348-1.659v-10.455c0-1.024-.041-2.109-.154-3.031-.85 0-1.751.113-2.12.225.174 1.239.226 2.048.226 3.134v10.742Zm11.54-2.254c-1.055 0-1.73.307-1.73 1.024 0 1.075 1.73 2.601 4.915 2.601 3.42 0 5.386-1.659 5.386-4.147 0-5.038-8.141-3.84-8.141-7.465 0-1.454 1.311-2.632 3.042-2.632 1.454 0 2.508.911 2.918 2.068 1.096 0 1.72-.174 1.72-.829 0-.983-1.659-2.488-4.557-2.488-3.246 0-5.079 1.751-5.079 4.014 0 4.782 8.07 3.645 8.07 7.598 0 1.679-1.444 2.642-3.257 2.642-1.679 0-2.806-.901-3.287-2.386Zm26.306-10.537c1.137 0 1.332-.235 1.332-.543 0-.245-.062-.634-.277-.942-.266.226-.809.267-1.679.267h-7.731c-1.024 0-2.11.041-3.031.153 0 .451.112.932.215 1.219a26.22 26.22 0 0 1 3.143-.154h1.925c.062.717.062 1.311.062 2.048v10.742c0 1.157.42 1.352.87 1.352.42 0 1.075-.093 1.557-.308-.308-.266-.379-.788-.379-1.658v-10.456c0-.583-.021-1.146-.041-1.72h4.034Zm8.755 12.791c0 1.157.389 1.351.85 1.351.41 0 1.065-.092 1.546-.307-.307-.266-.348-.788-.348-1.659v-10.455c0-1.024-.041-2.109-.153-3.031-.85 0-1.741.113-2.11.225.174 1.239.215 2.048.215 3.134v10.742Zm12.155-6.463c0-3.819 2.069-6.41 5.039-6.41 1.761 0 3.072.932 3.594 2.263 1.034 0 1.659-.215 1.659-.829 0-1.004-1.854-2.683-5.172-2.683-4.495 0-7.331 3.256-7.331 7.987 0 4.455 2.713 7.506 7.116 7.506 2.427 0 4.516-1.024 5.499-2.447l-.327-.195c-.154-.082-.328-.174-.461-.174-.676 0-1.26 1.577-4.557 1.577-3.031 0-5.059-2.693-5.059-6.595Zm19.129 4.209c-1.045 0-1.721.307-1.721 1.024 0 1.075 1.721 2.601 4.905 2.601 3.431 0 5.397-1.659 5.397-4.147 0-5.038-8.141-3.84-8.141-7.465 0-1.454 1.311-2.632 3.031-2.632 1.464 0 2.509.912 2.929 2.069 1.085 0 1.72-.174 1.72-.83 0-.983-1.659-2.488-4.557-2.488-3.256 0-5.089 1.751-5.089 4.014 0 4.782 8.079 3.645 8.079 7.598 0 1.679-1.443 2.642-3.256 2.642-1.679 0-2.816-.901-3.297-2.386Z"/></g><defs><clipPath id="a"><path fill="#fff" transform="translate(0 .5)" d="M0 0h512v512H0z"/></clipPath></defs></svg>