<svg width="512" height="512" fill="none" xmlns="http://www.w3.org/2000/svg"><path d="M478.375 146.501c3.664-1.422 9.539-2.297 17.625-2.625v-6.725c-9.406.655-23.726.983-42.958.983-17.922 0-32.129-.328-42.62-.983v6.725c8.086.328 13.961 1.203 17.625 2.625 3.664 1.423 6.177 4.043 7.538 7.861 1.372 3.828 2.058 9.949 2.058 18.363v67.737h31.136v-67.737c0-8.414.686-14.535 2.057-18.363 1.362-3.818 3.874-6.438 7.539-7.861Zm-9.596 165.495h-31.136v27.279c0 8.424-.686 14.545-2.058 18.363-1.361 3.828-3.874 6.453-7.538 7.876-3.664 1.422-9.539 2.298-17.625 2.625v6.709c10.491-.655 24.698-.982 42.62-.982 19.345 0 33.664.327 42.958.982v-6.709c-8.086-.327-13.961-1.203-17.625-2.625-3.665-1.423-6.177-4.048-7.539-7.876-1.371-3.818-2.057-9.939-2.057-18.363v-27.279Zm-140.328 0h-31.136v27.279c0 8.424-.686 14.545-2.057 18.363-1.361 3.828-3.874 6.453-7.538 7.876-3.665 1.422-9.54 2.298-17.626 2.625v6.709c9.407-.655 23.726-.982 42.958-.982 18.137 0 32.344.327 42.62.982v-6.709c-8.086-.327-13.961-1.203-17.625-2.625-3.664-1.423-6.177-4.048-7.538-7.876-1.372-3.818-2.058-9.939-2.058-18.363v-27.279Zm-31.136-71.534h31.136v-67.737c0-8.414.686-14.535 2.058-18.363 1.361-3.818 3.874-6.438 7.538-7.861 3.664-1.422 9.539-2.297 17.625-2.625v-6.725c-10.276.655-24.483.983-42.62.983-19.345 0-33.664-.328-42.958-.983v6.725c8.086.328 13.961 1.203 17.626 2.625 3.664 1.423 6.177 4.043 7.538 7.861 1.371 3.828 2.057 9.949 2.057 18.363v67.737Zm-82.63 0h-31.136v-67.737c0-8.414-.686-14.535-2.058-18.363-1.361-3.818-3.874-6.438-7.538-7.861-3.664-1.422-9.539-2.297-17.625-2.625v-6.725c10.491.655 24.698.983 42.62.983 19.232 0 33.552-.328 42.958-.983v6.725c-8.086.328-13.961 1.203-17.626 2.625-3.664 1.423-6.177 4.043-7.538 7.861-1.371 3.828-2.057 9.949-2.057 18.363v67.737Zm-140.328 0v-67.737c0-8.414.686-14.535 2.058-18.363 1.36-3.818 3.874-6.438 7.538-7.861 3.664-1.422 9.54-2.297 17.625-2.625v-6.725c-10.276.655-24.483.983-42.62.983-19.345 0-33.664-.328-42.958-.983v6.725c8.086.328 13.961 1.203 17.625 2.625 3.665 1.423 6.178 4.043 7.539 7.861 1.371 3.828 2.057 9.949 2.057 18.363v67.737h31.136Zm-31.136 71.534v27.279c0 8.424-.686 14.545-2.057 18.363-1.361 3.828-3.874 6.453-7.539 7.876-3.664 1.422-9.539 2.298-17.625 2.625v6.709c9.406-.655 23.726-.982 42.958-.982 18.137 0 32.344.327 42.62.982v-6.709c-8.086-.327-13.96-1.203-17.625-2.625-3.664-1.423-6.177-4.048-7.538-7.876-1.372-3.818-2.058-9.939-2.058-18.363v-27.279H43.221Zm140.328 0h31.136v27.279c0 8.424.686 14.545 2.057 18.363 1.361 3.828 3.874 6.453 7.538 7.876 3.665 1.422 9.54 2.298 17.626 2.625v6.709c-9.294-.655-23.613-.982-42.958-.982-17.922 0-32.129.327-42.62.982v-6.709c8.086-.327 13.961-1.203 17.625-2.625 3.664-1.423 6.177-4.048 7.538-7.876 1.372-3.818 2.058-9.939 2.058-18.363v-27.279Zm-129.13-29.645c0 1.735.598 2.027 1.29 2.027.613 0 1.627-.138 2.348-.461-.491-.399-.552-1.182-.552-2.487v-15.675a42.25 42.25 0 0 0-.23-4.514c-1.244 0-2.519.169-3.071.307.184 1.857.215 3.07.215 4.698v5.435H42.904v-5.926c0-1.536-.062-3.133-.23-4.514-1.306 0-2.61.169-3.163.307.26 1.857.322 3.07.322 4.698v16.105c0 1.735.553 2.027 1.244 2.027.553 0 1.504-.138 2.195-.461-.322-.399-.368-1.182-.368-2.487v-7.953h11.515v8.874Zm28.311-8.966c1.72 0 2.026-.322 2.026-.752 0-.353-.107-.921-.46-1.305-.4.184-1.182.23-2.487.23h-6.94c-.491 0-.983 0-1.443.031v-5.727c0-.921-.03-1.796-.092-2.656.552-.031 1.105-.031 1.735-.031h8.505c1.704 0 1.996-.322 1.996-.783 0-.353-.107-.921-.43-1.336-.384.261-1.213.292-2.518.292h-8.045c-1.535 0-3.178.062-4.544.23.26 1.827.322 3.102.322 4.745v16.32c0 .691.138 1.412.292 1.827 1.873-.2 3.086-.23 4.713-.23h8.506c1.735 0 2.026-.353 2.026-.783 0-.384-.092-.983-.46-1.397-.384.322-1.167.353-2.487.353h-8.076c-.491 0-.952 0-1.443.03v-9.027c.63-.031 1.243-.031 1.934-.031h7.37Zm30.476 8.966c.691 1.735 1.443 2.027 2.165 2.027.66 0 1.673-.138 2.256-.461-.583-.399-.982-1.151-1.504-2.487l-6.187-15.675c-.615-1.536-1.275-3.133-1.966-4.514-1.335 0-2.61.169-3.132.307a36.736 36.736 0 0 1-1.535 4.698l-6.356 16.105c-.261.722-.353 1.167-.353 1.474 0 .415.291.553.66.553a5.6 5.6 0 0 0 2.088-.461c0-.522.2-1.305.66-2.487l1.459-3.884h9.856l1.889 4.805Zm-6.31-16.105 3.7 9.457h-8.414l4.161-10.824c.199.43.353.876.553 1.367Zm34.652 17.995c1.719 0 1.996-.354 1.996-.783 0-.384-.108-.983-.43-1.398-.399.323-1.182.354-2.487.354h-7.754c-.491 0-.952 0-1.443.03v-16.689c0-1.535-.061-3.162-.23-4.544-1.275 0-2.61.169-3.163.338.261 1.857.322 3.07.322 4.698v16.397c0 .691.123 1.412.292 1.827 1.873-.2 3.071-.23 4.714-.23h8.183Zm25.87-21.066c1.704 0 1.995-.353 1.995-.814 0-.368-.092-.951-.429-1.412-.384.338-1.213.399-2.518.399h-11.577c-1.535 0-3.178.062-4.544.23 0 .676.153 1.398.322 1.827 1.827-.199 3.071-.23 4.714-.23h2.871c.107 1.075.107 1.965.107 3.071v16.105c0 1.735.614 2.027 1.305 2.027.614 0 1.597-.138 2.319-.461-.461-.399-.553-1.182-.553-2.487v-15.675c0-.876-.031-1.72-.062-2.58h6.05Zm27.712 19.176c0 1.735.583 2.027 1.274 2.027.614 0 1.628-.138 2.349-.461-.491-.399-.552-1.182-.552-2.487v-15.675c0-1.536-.062-3.133-.231-4.514-1.243 0-2.518.169-3.07.307.199 1.857.23 3.07.23 4.698v5.435h-11.515v-5.926c0-1.536-.077-3.133-.23-4.514-1.305 0-2.626.169-3.178.307.261 1.857.322 3.07.322 4.698v16.105c0 1.735.568 2.027 1.244 2.027.568 0 1.504-.138 2.195-.461-.322-.399-.353-1.182-.353-2.487v-7.953h11.515v8.874Zm46.259 0c0 1.735.583 2.027 1.274 2.027.614 0 1.628-.138 2.349-.461-.491-.399-.552-1.182-.552-2.487v-15.675c0-1.536-.062-3.133-.231-4.514-1.243 0-2.518.169-3.07.307.184 1.857.23 3.07.23 4.698v5.435h-11.515v-5.926c0-1.536-.077-3.133-.23-4.514-1.321 0-2.626.169-3.178.307.261 1.857.322 3.07.322 4.698v16.105c0 1.735.553 2.027 1.244 2.027.552 0 1.504-.138 2.195-.461-.322-.399-.353-1.182-.353-2.487v-7.953h11.515v8.874Zm28.296-8.966c1.735 0 2.026-.322 2.026-.752 0-.353-.107-.921-.46-1.305-.399.184-1.182.23-2.487.23h-6.94c-.491 0-.983 0-1.428.031v-5.727c0-.921-.046-1.796-.107-2.656.552-.031 1.12-.031 1.734-.031h8.506c1.704 0 1.996-.322 1.996-.783 0-.353-.092-.921-.43-1.336-.384.261-1.213.292-2.518.292h-8.045c-1.535 0-3.178.062-4.544.23.261 1.827.322 3.102.322 4.745v16.32c0 .691.138 1.412.292 1.827 1.873-.2 3.086-.23 4.713-.23h8.506c1.735 0 2.026-.353 2.026-.783 0-.384-.092-.983-.46-1.397-.384.322-1.167.353-2.472.353h-8.091c-.491 0-.952 0-1.428.03v-9.027c.614-.031 1.228-.031 1.919-.031h7.37Zm15.015 2.088c0 5.343 3.654 8.936 9.089 8.936 5.696 0 9.55-3.793 9.55-9.351v-9.303c0-1.536-.062-3.133-.231-4.514-1.243 0-2.517.169-3.07.307.199 1.857.23 3.07.23 4.698v9.104c0 4.284-2.518 7.201-6.218 7.201-3.731 0-6.279-2.948-6.279-7.262v-9.534c0-1.536-.062-3.133-.231-4.514-1.305 0-2.61.169-3.178.307.261 1.857.338 3.07.338 4.698v9.227Zm31.458 6.879c0 1.735.568 2.026 1.244 2.026.568 0 1.505-.138 2.195-.46-.322-.399-.353-1.182-.353-2.487v-6.541c.614-.03 1.244-.03 1.919-.03h2.042l4.699 7.43c1.059 1.827 1.965 2.088 2.717 2.088.691 0 1.566-.138 2.165-.46-.691-.43-1.275-1.244-2.134-2.579l-4.407-6.909c3.102-.952 5.036-3.332 5.036-6.479 0-3.915-3.117-6.602-7.722-6.602h-4.775c-1.244.03-2.426.153-2.948.291.261 1.858.322 3.071.322 4.714v15.998Zm3.01-19.176h4.13c2.871 0 4.836 2.026 4.836 4.974 0 2.887-1.889 4.883-4.714 4.883h-2.748c-.491 0-.967 0-1.428.03v-7.2c0-.891-.03-1.797-.076-2.687Zm24.319 19.176c0 1.735.584 2.027 1.275 2.027.614 0 1.597-.138 2.318-.461-.46-.399-.522-1.182-.522-2.487v-15.676c0-1.535-.061-3.162-.23-4.544-1.274 0-2.626.169-3.178.338.261 1.857.337 3.07.337 4.698v16.105Zm17.304-3.379c-1.582 0-2.595.461-2.595 1.535 0 1.613 2.595 3.9 7.369 3.9 5.128 0 8.076-2.487 8.076-6.218 0-7.554-12.206-5.757-12.206-11.192 0-2.18 1.966-3.946 4.56-3.946 2.181 0 3.762 1.366 4.376 3.101 1.643 0 2.579-.261 2.579-1.243 0-1.474-2.487-3.731-6.832-3.731-4.867 0-7.615 2.625-7.615 6.018 0 7.17 12.098 5.466 12.098 11.392 0 2.518-2.165 3.961-4.882 3.961-2.518 0-4.207-1.351-4.928-3.577Zm39.441-15.798c1.705 0 1.996-.353 1.996-.814 0-.368-.092-.951-.414-1.412-.399.338-1.213.399-2.518.399h-11.592c-1.535 0-3.163.062-4.544.23 0 .676.169 1.398.322 1.827 1.842-.199 3.086-.23 4.713-.23h2.887c.092 1.075.092 1.965.092 3.071v16.105c0 1.735.629 2.027 1.305 2.027.629 0 1.612-.138 2.334-.461-.461-.399-.568-1.182-.568-2.487v-15.675c0-.876-.031-1.72-.062-2.58h6.049Zm13.127 19.177c0 1.735.583 2.027 1.274 2.027.614 0 1.597-.138 2.318-.461-.46-.399-.522-1.182-.522-2.487v-15.676c0-1.535-.061-3.162-.23-4.544-1.274 0-2.61.169-3.163.338a30.21 30.21 0 0 1 .323 4.698v16.105Zm18.224-9.689c0-5.726 3.102-9.611 7.554-9.611 2.641 0 4.606 1.397 5.389 3.393 1.551 0 2.487-.322 2.487-1.243 0-1.505-2.779-4.023-7.753-4.023-6.74 0-10.993 4.883-10.993 11.976 0 6.678 4.069 11.254 10.671 11.254 3.638 0 6.77-1.536 8.244-3.67l-.491-.292c-.23-.122-.491-.261-.691-.261-1.013 0-1.888 2.365-6.832 2.365-4.545 0-7.585-4.038-7.585-9.888Zm28.68 6.311c-1.566 0-2.579.46-2.579 1.535 0 1.612 2.579 3.9 7.354 3.9 5.143 0 8.091-2.488 8.091-6.218 0-7.554-12.206-5.758-12.206-11.193 0-2.18 1.965-3.946 4.545-3.946 2.195 0 3.761 1.367 4.391 3.102 1.627 0 2.579-.261 2.579-1.244 0-1.474-2.487-3.731-6.832-3.731-4.882 0-7.631 2.626-7.631 6.019 0 7.17 12.114 5.465 12.114 11.392 0 2.518-2.165 3.961-4.882 3.961-2.518 0-4.222-1.351-4.944-3.577Z" fill="#004358"/></svg>