<svg width="321" height="159" viewBox="0 0 321 159" fill="none" xmlns="http://www.w3.org/2000/svg">
<g clip-path="url(#clip0_7801_1599)">
<path d="M308.828 6.31819C311.272 5.36928 315.191 4.7856 320.584 4.56715V0.0820312C314.31 0.518938 304.76 0.737391 291.932 0.737391C279.979 0.737391 270.503 0.518938 263.506 0.0820312V4.56715C268.899 4.7856 272.818 5.36928 275.262 6.31819C277.706 7.26709 279.381 9.01472 280.289 11.5611C281.204 14.1142 281.662 18.1966 281.662 23.8081V68.9863H302.428V23.8081C302.428 18.1966 302.886 14.1142 303.8 11.5611C304.708 9.01472 306.384 7.26709 308.828 6.31819Z" fill="black"/>
<path d="M302.428 116.698H281.662V134.892C281.662 140.51 281.204 144.592 280.289 147.139C279.381 149.692 277.706 151.443 275.262 152.392C272.818 153.341 268.899 153.924 263.506 154.143V158.618C270.503 158.181 279.979 157.962 291.932 157.962C304.835 157.962 314.385 158.181 320.584 158.618V154.143C315.191 153.924 311.272 153.341 308.828 152.392C306.384 151.443 304.708 149.692 303.8 147.139C302.886 144.592 302.428 140.51 302.428 134.892V116.698Z" fill="black"/>
<path d="M208.835 116.698H188.068V134.892C188.068 140.51 187.611 144.592 186.696 147.139C185.788 149.692 184.112 151.443 181.668 152.392C179.224 153.341 175.305 153.924 169.912 154.143V158.618C176.186 158.181 185.737 157.962 198.564 157.962C210.661 157.962 220.136 158.181 226.99 158.618V154.143C221.597 153.924 217.679 153.341 215.235 152.392C212.791 151.443 211.115 149.692 210.207 147.139C209.292 144.592 208.835 140.51 208.835 134.892V116.698Z" fill="black"/>
<path d="M188.068 68.9863H208.835V23.8081C208.835 18.1966 209.292 14.1142 210.207 11.5611C211.115 9.01472 212.791 7.26709 215.235 6.31819C217.679 5.36928 221.597 4.7856 226.99 4.56715V0.0820312C220.136 0.518938 210.661 0.737391 198.564 0.737391C185.662 0.737391 176.111 0.518938 169.912 0.0820312V4.56715C175.305 4.7856 179.224 5.36928 181.668 6.31819C184.112 7.26709 185.788 9.01472 186.696 11.5611C187.611 14.1142 188.068 18.1966 188.068 23.8081V68.9863Z" fill="black"/>
<path d="M132.956 68.9863H112.19V23.8081C112.19 18.1966 111.732 14.1143 110.817 11.5611C109.909 9.01474 108.234 7.26711 105.79 6.3182C103.346 5.3693 99.4271 4.78562 94.034 4.56716V0.0820465C101.031 0.518953 110.507 0.737406 122.46 0.737406C135.288 0.737406 144.838 0.518953 151.112 0.0820465V4.56716C145.719 4.78562 141.8 5.3693 139.356 6.3182C136.912 7.26711 135.236 9.01474 134.328 11.5611C133.414 14.1143 132.956 18.1966 132.956 23.8081V68.9863Z" fill="black"/>
<path d="M39.3627 68.9863V23.8081C39.3627 18.1966 39.8201 14.1143 40.7348 11.5611C41.6428 9.01474 43.3187 7.26711 45.7627 6.3182C48.2066 5.3693 52.1251 4.78562 57.5182 4.56716V0.0820465C50.6642 0.518953 41.1888 0.737406 29.092 0.737406C16.1896 0.737406 6.63904 0.518953 0.44043 0.0820465V4.56716C5.8335 4.78562 9.75202 5.3693 12.196 6.3182C14.6399 7.26711 16.3159 9.01474 17.2238 11.5611C18.1386 14.1143 18.596 18.1966 18.596 23.8081V68.9863H39.3627Z" fill="black"/>
<path d="M18.596 116.698V134.892C18.596 140.51 18.1386 144.592 17.2238 147.139C16.3159 149.692 14.6399 151.443 12.196 152.392C9.75202 153.341 5.8335 153.924 0.44043 154.143V158.618C6.71414 158.181 16.2647 157.962 29.092 157.962C41.1888 157.962 50.6642 158.181 57.5182 158.618V154.143C52.1251 153.924 48.2066 153.341 45.7627 152.392C43.3187 151.443 41.6428 149.692 40.7348 147.139C39.8201 144.592 39.3627 140.51 39.3627 134.892V116.698H18.596Z" fill="black"/>
<path d="M112.19 116.698H132.956V134.892C132.956 140.51 133.414 144.592 134.328 147.139C135.236 149.692 136.912 151.443 139.356 152.392C141.8 153.341 145.719 153.924 151.112 154.143V158.618C144.913 158.181 135.363 157.962 122.46 157.962C110.507 157.962 101.031 158.181 94.034 158.618V154.143C99.4271 153.924 103.346 153.341 105.79 152.392C108.234 151.443 109.909 149.692 110.817 147.139C111.732 144.592 112.19 140.51 112.19 134.892V116.698Z" fill="black"/>
<path d="M26.0646 96.9259C26.0646 98.083 26.464 98.2776 26.9248 98.2776C27.3344 98.2776 28.0102 98.1854 28.4915 97.9704C28.1638 97.7042 28.1229 97.1819 28.1229 96.3115V85.8565C28.1229 84.8325 28.0717 83.7675 27.9693 82.8459C27.1398 82.8459 26.2899 82.9586 25.9213 83.0507C26.0441 84.2898 26.0646 85.0987 26.0646 86.1842V89.8091H18.3846V85.8565C18.3846 84.8325 18.3437 83.7675 18.231 82.8459C17.3606 82.8459 16.4902 82.9586 16.1216 83.0507C16.2957 84.2898 16.3366 85.0987 16.3366 86.1842V96.9259C16.3366 98.083 16.7053 98.2776 17.1661 98.2776C17.5347 98.2776 18.1696 98.1854 18.6304 97.9704C18.4153 97.7042 18.3846 97.1819 18.3846 96.3115V91.0072H26.0646V96.9259Z" fill="black"/>
<path d="M44.9472 90.9458C46.094 90.9458 46.2988 90.7307 46.2988 90.444C46.2988 90.2085 46.2272 89.8296 45.9917 89.5736C45.7254 89.6965 45.2032 89.7272 44.3328 89.7272H39.7043C39.3766 89.7272 39.0489 89.7272 38.7417 89.7477V85.9282C38.7417 85.3138 38.7212 84.7301 38.6803 84.1566C39.0489 84.1362 39.4176 84.1362 39.8374 84.1362H45.5104C46.647 84.1362 46.8416 83.9211 46.8416 83.6139C46.8416 83.3784 46.7699 82.9995 46.5548 82.723C46.2988 82.8971 45.7459 82.9176 44.8755 82.9176H39.5097C38.4857 82.9176 37.3901 82.9586 36.4787 83.0712C36.6528 84.2898 36.6937 85.1397 36.6937 86.2354V97.1205C36.6937 97.5813 36.7859 98.0626 36.8883 98.339C38.1376 98.2059 38.9465 98.1854 40.032 98.1854H45.7049C46.862 98.1854 47.0566 97.9499 47.0566 97.6632C47.0566 97.4072 46.9952 97.0078 46.7494 96.7314C46.4934 96.9464 45.9712 96.9669 45.0905 96.9669H39.7043C39.3766 96.9669 39.0694 96.9669 38.7417 96.9874V90.9662C39.1616 90.9458 39.5712 90.9458 40.032 90.9458H44.9472Z" fill="black"/>
<path d="M65.2736 96.9259C65.7344 98.083 66.2361 98.2776 66.7174 98.2776C67.1577 98.2776 67.8336 98.1854 68.2227 97.9704C67.8336 97.7042 67.5673 97.2024 67.2192 96.3115L63.0925 85.8565C62.6829 84.8325 62.2425 83.7675 61.7817 82.8459C60.8909 82.8459 60.0409 82.9586 59.6928 83.0507C59.3856 84.2488 59.0169 85.3342 58.6688 86.1842L54.4294 96.9259C54.2553 97.4072 54.1939 97.7042 54.1939 97.909C54.1939 98.1854 54.3885 98.2776 54.6342 98.2776C54.9824 98.2776 55.5456 98.1854 56.0269 97.9704C56.0269 97.6222 56.16 97.1 56.4672 96.3115L57.44 93.7208H64.0141L65.2736 96.9259ZM61.0649 86.1842L63.5328 92.492H57.9213L60.6963 85.2728C60.8294 85.5595 60.9318 85.8565 61.0649 86.1842Z" fill="black"/>
<path d="M84.1768 98.186C85.3236 98.186 85.508 97.9505 85.508 97.6638C85.508 97.4078 85.4363 97.0084 85.2213 96.7319C84.955 96.947 84.4328 96.9675 83.5624 96.9675H78.3912C78.0635 96.9675 77.7563 96.9675 77.4286 96.9879V85.8571C77.4286 84.8331 77.3876 83.7476 77.275 82.826C76.4251 82.826 75.5342 82.9387 75.1656 83.0513C75.3397 84.2903 75.3806 85.0993 75.3806 86.1847V97.1211C75.3806 97.5819 75.4625 98.0631 75.5752 98.3396C76.8245 98.2065 77.6232 98.186 78.7189 98.186H84.1768Z" fill="black"/>
<path d="M101.431 84.1362C102.568 84.1362 102.762 83.9006 102.762 83.5934C102.762 83.3477 102.701 82.9586 102.475 82.6514C102.219 82.8766 101.667 82.9176 100.796 82.9176H93.0752C92.0512 82.9176 90.9555 82.9586 90.0441 83.0712C90.0441 83.5218 90.1465 84.003 90.2592 84.2898C91.4777 84.1566 92.3072 84.1362 93.4028 84.1362H95.3177C95.3894 84.853 95.3894 85.4469 95.3894 86.1842V96.9259C95.3894 98.083 95.799 98.2776 96.2598 98.2776C96.6694 98.2776 97.3248 98.1854 97.806 97.9704C97.4988 97.7042 97.4374 97.1819 97.4374 96.3115V85.8565C97.4374 85.2728 97.4169 84.7096 97.3964 84.1362H101.431Z" fill="black"/>
<path d="M119.914 96.9259C119.914 98.083 120.303 98.2776 120.764 98.2776C121.174 98.2776 121.85 98.1854 122.331 97.9704C122.003 97.7042 121.962 97.1819 121.962 96.3115V85.8565C121.962 84.8325 121.921 83.7675 121.809 82.8459C120.979 82.8459 120.129 82.9586 119.761 83.0507C119.894 84.2898 119.914 85.0987 119.914 86.1842V89.8091H112.234V85.8565C112.234 84.8325 112.183 83.7675 112.081 82.8459C111.21 82.8459 110.33 82.9586 109.961 83.0507C110.135 84.2898 110.176 85.0987 110.176 86.1842V96.9259C110.176 98.083 110.555 98.2776 111.005 98.2776C111.384 98.2776 112.009 98.1854 112.47 97.9704C112.255 97.7042 112.234 97.1819 112.234 96.3115V91.0072H119.914V96.9259Z" fill="black"/>
<path d="M150.767 96.9259C150.767 98.083 151.156 98.2776 151.617 98.2776C152.027 98.2776 152.703 98.1854 153.184 97.9704C152.856 97.7042 152.815 97.1819 152.815 96.3115V85.8565C152.815 84.8325 152.774 83.7675 152.662 82.8459C151.832 82.8459 150.982 82.9586 150.614 83.0507C150.737 84.2898 150.767 85.0987 150.767 86.1842V89.8091H143.087V85.8565C143.087 84.8325 143.036 83.7675 142.934 82.8459C142.053 82.8459 141.183 82.9586 140.814 83.0507C140.988 84.2898 141.029 85.0987 141.029 86.1842V96.9259C141.029 98.083 141.398 98.2776 141.859 98.2776C142.227 98.2776 142.862 98.1854 143.323 97.9704C143.108 97.7042 143.087 97.1819 143.087 96.3115V91.0072H150.767V96.9259Z" fill="black"/>
<path d="M169.64 90.9458C170.797 90.9458 170.991 90.7307 170.991 90.444C170.991 90.2085 170.92 89.8296 170.684 89.5736C170.418 89.6965 169.896 89.7272 169.025 89.7272H164.397C164.069 89.7272 163.741 89.7272 163.444 89.7477V85.9282C163.444 85.3138 163.414 84.7301 163.373 84.1566C163.741 84.1362 164.12 84.1362 164.53 84.1362H170.203C171.339 84.1362 171.534 83.9211 171.534 83.6139C171.534 83.3784 171.473 82.9995 171.247 82.723C170.991 82.8971 170.438 82.9176 169.568 82.9176H164.202C163.178 82.9176 162.083 82.9586 161.171 83.0712C161.345 84.2898 161.386 85.1397 161.386 86.2354V97.1205C161.386 97.5813 161.478 98.0626 161.581 98.339C162.83 98.2059 163.639 98.1854 164.724 98.1854H170.397C171.555 98.1854 171.749 97.9499 171.749 97.6632C171.749 97.4072 171.688 97.0078 171.442 96.7314C171.186 96.9464 170.664 96.9669 169.793 96.9669H164.397C164.069 96.9669 163.762 96.9669 163.444 96.9874V90.9662C163.854 90.9458 164.264 90.9458 164.724 90.9458H169.64Z" fill="black"/>
<path d="M179.654 92.3384C179.654 95.9019 182.091 98.2981 185.716 98.2981C189.515 98.2981 192.086 95.7688 192.086 92.0619V85.8565C192.086 84.8325 192.045 83.7675 191.932 82.8459C191.103 82.8459 190.253 82.9586 189.884 83.0507C190.017 84.2898 190.038 85.0987 190.038 86.1842V92.2565C190.038 95.1134 188.358 97.059 185.891 97.059C183.402 97.059 181.702 95.093 181.702 92.2155V85.8565C181.702 84.8325 181.661 83.7675 181.549 82.8459C180.678 82.8459 179.808 82.9586 179.429 83.0507C179.603 84.2898 179.654 85.0987 179.654 86.1842V92.3384Z" fill="black"/>
<path d="M200.636 96.9263C200.636 98.0835 201.015 98.278 201.465 98.278C201.844 98.278 202.469 98.1859 202.93 97.9708C202.715 97.7046 202.694 97.1823 202.694 96.3119V91.9497C203.104 91.9292 203.524 91.9292 203.974 91.9292H205.336L208.47 96.8854C209.176 98.1039 209.78 98.278 210.282 98.278C210.743 98.278 211.327 98.1859 211.726 97.9708C211.265 97.6841 210.876 97.1414 210.303 96.2505L207.364 91.6425C209.432 91.0076 210.722 89.4204 210.722 87.3212C210.722 84.71 208.644 82.918 205.572 82.918H202.387C201.558 82.9385 200.769 83.0204 200.421 83.1126C200.595 84.3516 200.636 85.1606 200.636 86.2563V96.9263ZM202.643 84.1366H205.398C207.312 84.1366 208.623 85.4883 208.623 87.4543C208.623 89.3795 207.364 90.7107 205.479 90.7107H203.647C203.319 90.7107 203.001 90.7107 202.694 90.7311V85.9286C202.694 85.3347 202.674 84.7305 202.643 84.1366Z" fill="black"/>
<path d="M218.864 96.9265C218.864 98.0836 219.253 98.2782 219.713 98.2782C220.123 98.2782 220.778 98.186 221.26 97.971C220.952 97.7048 220.912 97.1825 220.912 96.3121V85.8571C220.912 84.8331 220.871 83.7476 220.758 82.826C219.908 82.826 219.007 82.9387 218.638 83.0513C218.812 84.2903 218.864 85.0993 218.864 86.1847V96.9265Z" fill="black"/>
<path d="M230.404 94.6729C229.349 94.6729 228.674 94.9801 228.674 95.6969C228.674 96.7721 230.404 98.2978 233.589 98.2978C237.009 98.2978 238.975 96.6389 238.975 94.1506C238.975 89.1125 230.834 90.3106 230.834 86.6857C230.834 85.2316 232.145 84.054 233.876 84.054C235.33 84.054 236.384 84.9653 236.794 86.1225C237.89 86.1225 238.514 85.9484 238.514 85.293C238.514 84.31 236.855 82.8047 233.957 82.8047C230.711 82.8047 228.878 84.5557 228.878 86.8188C228.878 91.6009 236.948 90.4642 236.948 94.4169C236.948 96.0962 235.504 97.0588 233.691 97.0588C232.012 97.0588 230.885 96.1577 230.404 94.6729Z" fill="black"/>
<path d="M256.71 84.1362C257.847 84.1362 258.042 83.9006 258.042 83.5934C258.042 83.3477 257.98 82.9586 257.765 82.6514C257.499 82.8766 256.956 82.9176 256.086 82.9176H248.355C247.331 82.9176 246.245 82.9586 245.324 83.0712C245.324 83.5218 245.436 84.003 245.539 84.2898C246.767 84.1566 247.597 84.1362 248.682 84.1362H250.607C250.669 84.853 250.669 85.4469 250.669 86.1842V96.9259C250.669 98.083 251.089 98.2776 251.539 98.2776C251.959 98.2776 252.614 98.1854 253.096 97.9704C252.788 97.7042 252.717 97.1819 252.717 96.3115V85.8565C252.717 85.2728 252.696 84.7096 252.676 84.1362H256.71Z" fill="black"/>
<path d="M265.465 96.9265C265.465 98.0836 265.854 98.2782 266.315 98.2782C266.725 98.2782 267.38 98.186 267.861 97.971C267.554 97.7048 267.513 97.1825 267.513 96.3121V85.8571C267.513 84.8331 267.472 83.7476 267.36 82.826C266.51 82.826 265.619 82.9387 265.25 83.0513C265.424 84.2903 265.465 85.0993 265.465 86.1847V96.9265Z" fill="black"/>
<path d="M277.62 90.4645C277.62 86.645 279.689 84.0542 282.659 84.0542C284.42 84.0542 285.731 84.9861 286.253 86.3173C287.287 86.3173 287.912 86.1022 287.912 85.4878C287.912 84.4843 286.058 82.805 282.74 82.805C278.245 82.805 275.409 86.0613 275.409 90.7922C275.409 95.2466 278.122 98.2981 282.525 98.2981C284.952 98.2981 287.041 97.2741 288.024 95.8507L287.697 95.6562C287.543 95.5742 287.369 95.4821 287.236 95.4821C286.56 95.4821 285.976 97.059 282.679 97.059C279.648 97.059 277.62 94.3659 277.62 90.4645Z" fill="black"/>
<path d="M296.749 94.6731C295.704 94.6731 295.028 94.9803 295.028 95.6971C295.028 96.7723 296.749 98.2981 299.933 98.2981C303.364 98.2981 305.33 96.6392 305.33 94.1509C305.33 89.1128 297.189 90.3109 297.189 86.6859C297.189 85.2318 298.5 84.0542 300.22 84.0542C301.684 84.0542 302.729 84.9656 303.149 86.1227C304.234 86.1227 304.869 85.9486 304.869 85.2933C304.869 84.3102 303.21 82.805 300.312 82.805C297.056 82.805 295.223 84.556 295.223 86.819C295.223 91.6011 303.302 90.4645 303.302 94.4171C303.302 96.0965 301.859 97.059 300.046 97.059C298.367 97.059 297.23 96.1579 296.749 94.6731Z" fill="black"/>
</g>
<defs>
<clipPath id="clip0_7801_1599">
<rect width="321" height="159" fill="white"/>
</clipPath>
</defs>
</svg>
