<svg width="322" height="160" viewBox="0 0 322 160" fill="none" xmlns="http://www.w3.org/2000/svg">
<path d="M309.328 6.81819C311.772 5.86928 315.691 5.2856 321.084 5.06715V0.582031C314.81 1.01894 305.26 1.23739 292.432 1.23739C280.479 1.23739 271.003 1.01894 264.006 0.582031V5.06715C269.399 5.2856 273.318 5.86928 275.762 6.81819C278.206 7.76709 279.881 9.51472 280.789 12.0611C281.704 14.6142 282.162 18.6966 282.162 24.3081V69.4863H302.928V24.3081C302.928 18.6966 303.386 14.6142 304.3 12.0611C305.208 9.51472 306.884 7.76709 309.328 6.81819Z" fill="black"/>
<path d="M302.928 117.198H282.162V135.392C282.162 141.01 281.704 145.092 280.789 147.639C279.881 150.192 278.206 151.943 275.762 152.892C273.318 153.841 269.399 154.424 264.006 154.643V159.118C271.003 158.681 280.479 158.462 292.432 158.462C305.335 158.462 314.885 158.681 321.084 159.118V154.643C315.691 154.424 311.772 153.841 309.328 152.892C306.884 151.943 305.208 150.192 304.3 147.639C303.386 145.092 302.928 141.01 302.928 135.392V117.198Z" fill="black"/>
<path d="M209.335 117.198H188.568V135.392C188.568 141.01 188.111 145.092 187.196 147.639C186.288 150.192 184.612 151.943 182.168 152.892C179.724 153.841 175.805 154.424 170.412 154.643V159.118C176.686 158.681 186.237 158.462 199.064 158.462C211.161 158.462 220.636 158.681 227.49 159.118V154.643C222.097 154.424 218.179 153.841 215.735 152.892C213.291 151.943 211.615 150.192 210.707 147.639C209.792 145.092 209.335 141.01 209.335 135.392V117.198Z" fill="black"/>
<path d="M188.568 69.4863H209.335V24.3081C209.335 18.6966 209.792 14.6142 210.707 12.0611C211.615 9.51472 213.291 7.76709 215.735 6.81819C218.179 5.86928 222.097 5.2856 227.49 5.06715V0.582031C220.636 1.01894 211.161 1.23739 199.064 1.23739C186.162 1.23739 176.611 1.01894 170.412 0.582031V5.06715C175.805 5.2856 179.724 5.86928 182.168 6.81819C184.612 7.76709 186.288 9.51472 187.196 12.0611C188.111 14.6142 188.568 18.6966 188.568 24.3081V69.4863Z" fill="black"/>
<path d="M133.456 69.4863H112.69V24.3081C112.69 18.6966 112.232 14.6143 111.317 12.0611C110.409 9.51474 108.734 7.76711 106.29 6.8182C103.846 5.8693 99.9271 5.28562 94.534 5.06716V0.582047C101.531 1.01895 111.007 1.23741 122.96 1.23741C135.788 1.23741 145.338 1.01895 151.612 0.582047V5.06716C146.219 5.28562 142.3 5.8693 139.856 6.8182C137.412 7.76711 135.736 9.51474 134.828 12.0611C133.914 14.6143 133.456 18.6966 133.456 24.3081V69.4863Z" fill="black"/>
<path d="M39.8627 69.4863V24.3081C39.8627 18.6966 40.3201 14.6143 41.2348 12.0611C42.1428 9.51474 43.8187 7.76711 46.2627 6.8182C48.7066 5.8693 52.6251 5.28562 58.0182 5.06716V0.582047C51.1642 1.01895 41.6888 1.23741 29.592 1.23741C16.6896 1.23741 7.13904 1.01895 0.94043 0.582047V5.06716C6.3335 5.28562 10.252 5.8693 12.696 6.8182C15.1399 7.76711 16.8159 9.51474 17.7238 12.0611C18.6386 14.6143 19.096 18.6966 19.096 24.3081V69.4863H39.8627Z" fill="black"/>
<path d="M19.096 117.198V135.392C19.096 141.01 18.6386 145.092 17.7238 147.639C16.8159 150.192 15.1399 151.943 12.696 152.892C10.252 153.841 6.3335 154.424 0.94043 154.643V159.118C7.21414 158.681 16.7647 158.462 29.592 158.462C41.6888 158.462 51.1642 158.681 58.0182 159.118V154.643C52.6251 154.424 48.7066 153.841 46.2627 152.892C43.8187 151.943 42.1428 150.192 41.2348 147.639C40.3201 145.092 39.8627 141.01 39.8627 135.392V117.198H19.096Z" fill="black"/>
<path d="M112.69 117.198H133.456V135.392C133.456 141.01 133.914 145.092 134.828 147.639C135.736 150.192 137.412 151.943 139.856 152.892C142.3 153.841 146.219 154.424 151.612 154.643V159.118C145.413 158.681 135.863 158.462 122.96 158.462C111.007 158.462 101.531 158.681 94.534 159.118V154.643C99.9271 154.424 103.846 153.841 106.29 152.892C108.734 151.943 110.409 150.192 111.317 147.639C112.232 145.092 112.69 141.01 112.69 135.392V117.198Z" fill="black"/>
<path d="M26.5646 97.4259C26.5646 98.583 26.964 98.7776 27.4248 98.7776C27.8344 98.7776 28.5102 98.6854 28.9915 98.4704C28.6638 98.2042 28.6229 97.6819 28.6229 96.8115V86.3565C28.6229 85.3325 28.5717 84.2675 28.4693 83.3459C27.6398 83.3459 26.7899 83.4586 26.4213 83.5507C26.5441 84.7898 26.5646 85.5987 26.5646 86.6842V90.3091H18.8846V86.3565C18.8846 85.3325 18.8437 84.2675 18.731 83.3459C17.8606 83.3459 16.9902 83.4586 16.6216 83.5507C16.7957 84.7898 16.8366 85.5987 16.8366 86.6842V97.4259C16.8366 98.583 17.2053 98.7776 17.666 98.7776C18.0347 98.7776 18.6696 98.6854 19.1304 98.4704C18.9153 98.2042 18.8846 97.6819 18.8846 96.8115V91.5072H26.5646V97.4259Z" fill="black"/>
<path d="M45.4472 91.4458C46.594 91.4458 46.7988 91.2307 46.7988 90.944C46.7988 90.7085 46.7272 90.3296 46.4917 90.0736C46.2254 90.1965 45.7032 90.2272 44.8328 90.2272H40.2043C39.8766 90.2272 39.5489 90.2272 39.2417 90.2477V86.4282C39.2417 85.8138 39.2212 85.2301 39.1803 84.6566C39.5489 84.6362 39.9176 84.6362 40.3374 84.6362H46.0104C47.147 84.6362 47.3416 84.4211 47.3416 84.1139C47.3416 83.8784 47.2699 83.4995 47.0548 83.223C46.7988 83.3971 46.2459 83.4176 45.3755 83.4176H40.0097C38.9857 83.4176 37.8901 83.4586 36.9787 83.5712C37.1528 84.7898 37.1937 85.6397 37.1937 86.7354V97.6205C37.1937 98.0813 37.2859 98.5626 37.3883 98.8391C38.6376 98.7059 39.4465 98.6854 40.532 98.6854H46.2049C47.362 98.6854 47.5566 98.4499 47.5566 98.1632C47.5566 97.9072 47.4952 97.5078 47.2494 97.2314C46.9934 97.4464 46.4712 97.4669 45.5905 97.4669H40.2043C39.8766 97.4669 39.5694 97.4669 39.2417 97.4874V91.4662C39.6616 91.4458 40.0712 91.4458 40.532 91.4458H45.4472Z" fill="black"/>
<path d="M65.7736 97.4259C66.2344 98.583 66.7361 98.7776 67.2174 98.7776C67.6577 98.7776 68.3336 98.6854 68.7227 98.4704C68.3336 98.2042 68.0673 97.7024 67.7192 96.8115L63.5925 86.3565C63.1829 85.3325 62.7425 84.2675 62.2817 83.3459C61.3909 83.3459 60.5409 83.4586 60.1928 83.5507C59.8856 84.7488 59.5169 85.8342 59.1688 86.6842L54.9294 97.4259C54.7553 97.9072 54.6939 98.2042 54.6939 98.409C54.6939 98.6854 54.8885 98.7776 55.1342 98.7776C55.4824 98.7776 56.0456 98.6854 56.5269 98.4704C56.5269 98.1222 56.66 97.6 56.9672 96.8115L57.94 94.2208H64.5141L65.7736 97.4259ZM61.5649 86.6842L64.0328 92.992H58.4213L61.1963 85.7728C61.3294 86.0595 61.4318 86.3565 61.5649 86.6842Z" fill="black"/>
<path d="M84.6768 98.686C85.8236 98.686 86.008 98.4505 86.008 98.1638C86.008 97.9078 85.9363 97.5084 85.7213 97.2319C85.455 97.447 84.9328 97.4675 84.0624 97.4675H78.8912C78.5635 97.4675 78.2563 97.4675 77.9286 97.4879V86.3571C77.9286 85.3331 77.8876 84.2476 77.775 83.326C76.9251 83.326 76.0342 83.4387 75.6656 83.5513C75.8397 84.7903 75.8806 85.5993 75.8806 86.6847V97.6211C75.8806 98.0819 75.9625 98.5632 76.0752 98.8396C77.3245 98.7065 78.1232 98.686 79.2189 98.686H84.6768Z" fill="black"/>
<path d="M101.931 84.6362C103.068 84.6362 103.262 84.4006 103.262 84.0934C103.262 83.8477 103.201 83.4586 102.975 83.1514C102.719 83.3766 102.167 83.4176 101.296 83.4176H93.5752C92.5512 83.4176 91.4555 83.4586 90.5441 83.5712C90.5441 84.0218 90.6465 84.503 90.7592 84.7898C91.9777 84.6566 92.8072 84.6362 93.9028 84.6362H95.8177C95.8894 85.353 95.8894 85.9469 95.8894 86.6842V97.4259C95.8894 98.583 96.299 98.7776 96.7598 98.7776C97.1694 98.7776 97.8248 98.6854 98.306 98.4704C97.9988 98.2042 97.9374 97.6819 97.9374 96.8115V86.3565C97.9374 85.7728 97.9169 85.2096 97.8964 84.6362H101.931Z" fill="black"/>
<path d="M120.414 97.4259C120.414 98.583 120.803 98.7776 121.264 98.7776C121.674 98.7776 122.35 98.6854 122.831 98.4704C122.503 98.2042 122.462 97.6819 122.462 96.8115V86.3565C122.462 85.3325 122.421 84.2675 122.309 83.3459C121.479 83.3459 120.629 83.4586 120.261 83.5507C120.394 84.7898 120.414 85.5987 120.414 86.6842V90.3091H112.734V86.3565C112.734 85.3325 112.683 84.2675 112.581 83.3459C111.71 83.3459 110.83 83.4586 110.461 83.5507C110.635 84.7898 110.676 85.5987 110.676 86.6842V97.4259C110.676 98.583 111.055 98.7776 111.505 98.7776C111.884 98.7776 112.509 98.6854 112.97 98.4704C112.755 98.2042 112.734 97.6819 112.734 96.8115V91.5072H120.414V97.4259Z" fill="black"/>
<path d="M151.267 97.4259C151.267 98.583 151.656 98.7776 152.117 98.7776C152.527 98.7776 153.203 98.6854 153.684 98.4704C153.356 98.2042 153.315 97.6819 153.315 96.8115V86.3565C153.315 85.3325 153.274 84.2675 153.162 83.3459C152.332 83.3459 151.482 83.4586 151.114 83.5507C151.237 84.7898 151.267 85.5987 151.267 86.6842V90.3091H143.587V86.3565C143.587 85.3325 143.536 84.2675 143.434 83.3459C142.553 83.3459 141.683 83.4586 141.314 83.5507C141.488 84.7898 141.529 85.5987 141.529 86.6842V97.4259C141.529 98.583 141.898 98.7776 142.359 98.7776C142.727 98.7776 143.362 98.6854 143.823 98.4704C143.608 98.2042 143.587 97.6819 143.587 96.8115V91.5072H151.267V97.4259Z" fill="black"/>
<path d="M170.14 91.4458C171.297 91.4458 171.491 91.2307 171.491 90.944C171.491 90.7085 171.42 90.3296 171.184 90.0736C170.918 90.1965 170.396 90.2272 169.525 90.2272H164.897C164.569 90.2272 164.241 90.2272 163.944 90.2477V86.4282C163.944 85.8138 163.914 85.2301 163.873 84.6566C164.241 84.6362 164.62 84.6362 165.03 84.6362H170.703C171.839 84.6362 172.034 84.4211 172.034 84.1139C172.034 83.8784 171.973 83.4995 171.747 83.223C171.491 83.3971 170.938 83.4176 170.068 83.4176H164.702C163.678 83.4176 162.583 83.4586 161.671 83.5712C161.845 84.7898 161.886 85.6397 161.886 86.7354V97.6205C161.886 98.0813 161.978 98.5626 162.081 98.8391C163.33 98.7059 164.139 98.6854 165.224 98.6854H170.897C172.055 98.6854 172.249 98.4499 172.249 98.1632C172.249 97.9072 172.188 97.5078 171.942 97.2314C171.686 97.4464 171.164 97.4669 170.293 97.4669H164.897C164.569 97.4669 164.262 97.4669 163.944 97.4874V91.4662C164.354 91.4458 164.764 91.4458 165.224 91.4458H170.14Z" fill="black"/>
<path d="M180.154 92.8384C180.154 96.4019 182.591 98.7981 186.216 98.7981C190.015 98.7981 192.586 96.2688 192.586 92.5619V86.3565C192.586 85.3325 192.545 84.2675 192.432 83.3459C191.603 83.3459 190.753 83.4586 190.384 83.5507C190.517 84.7898 190.538 85.5987 190.538 86.6842V92.7565C190.538 95.6134 188.858 97.5591 186.391 97.5591C183.902 97.5591 182.202 95.593 182.202 92.7155V86.3565C182.202 85.3325 182.161 84.2675 182.049 83.3459C181.178 83.3459 180.308 83.4586 179.929 83.5507C180.103 84.7898 180.154 85.5987 180.154 86.6842V92.8384Z" fill="black"/>
<path d="M201.136 97.4263C201.136 98.5835 201.515 98.778 201.965 98.778C202.344 98.778 202.969 98.6859 203.43 98.4708C203.215 98.2046 203.194 97.6824 203.194 96.812V92.4497C203.604 92.4292 204.024 92.4292 204.474 92.4292H205.836L208.97 97.3854C209.676 98.604 210.28 98.778 210.782 98.778C211.243 98.778 211.827 98.6859 212.226 98.4708C211.765 98.1841 211.376 97.6414 210.803 96.7505L207.864 92.1425C209.932 91.5076 211.222 89.9204 211.222 87.8212C211.222 85.21 209.144 83.418 206.072 83.418H202.887C202.058 83.4385 201.269 83.5204 200.921 83.6126C201.095 84.8516 201.136 85.6606 201.136 86.7563V97.4263ZM203.143 84.6366H205.898C207.812 84.6366 209.123 85.9883 209.123 87.9543C209.123 89.8795 207.864 91.2107 205.979 91.2107H204.147C203.819 91.2107 203.501 91.2107 203.194 91.2311V86.4286C203.194 85.8347 203.174 85.2305 203.143 84.6366Z" fill="black"/>
<path d="M219.364 97.4265C219.364 98.5836 219.753 98.7782 220.213 98.7782C220.623 98.7782 221.278 98.686 221.76 98.471C221.452 98.2048 221.412 97.6825 221.412 96.8121V86.3571C221.412 85.3331 221.371 84.2476 221.258 83.326C220.408 83.326 219.507 83.4387 219.138 83.5513C219.312 84.7903 219.364 85.5993 219.364 86.6847V97.4265Z" fill="black"/>
<path d="M230.904 95.1729C229.849 95.1729 229.174 95.4801 229.174 96.1969C229.174 97.2721 230.904 98.7978 234.089 98.7978C237.509 98.7978 239.475 97.1389 239.475 94.6506C239.475 89.6125 231.334 90.8106 231.334 87.1857C231.334 85.7316 232.645 84.554 234.376 84.554C235.83 84.554 236.884 85.4653 237.294 86.6225C238.39 86.6225 239.014 86.4484 239.014 85.793C239.014 84.81 237.355 83.3047 234.457 83.3047C231.211 83.3047 229.378 85.0557 229.378 87.3188C229.378 92.1009 237.448 90.9642 237.448 94.9169C237.448 96.5962 236.004 97.5588 234.191 97.5588C232.512 97.5588 231.385 96.6577 230.904 95.1729Z" fill="black"/>
<path d="M257.21 84.6362C258.347 84.6362 258.542 84.4006 258.542 84.0934C258.542 83.8477 258.48 83.4586 258.265 83.1514C257.999 83.3766 257.456 83.4176 256.586 83.4176H248.855C247.831 83.4176 246.745 83.4586 245.824 83.5712C245.824 84.0218 245.936 84.503 246.039 84.7898C247.267 84.6566 248.097 84.6362 249.182 84.6362H251.107C251.169 85.353 251.169 85.9469 251.169 86.6842V97.4259C251.169 98.583 251.589 98.7776 252.039 98.7776C252.459 98.7776 253.114 98.6854 253.596 98.4704C253.288 98.2042 253.217 97.6819 253.217 96.8115V86.3565C253.217 85.7728 253.196 85.2096 253.176 84.6362H257.21Z" fill="black"/>
<path d="M265.965 97.4265C265.965 98.5836 266.354 98.7782 266.815 98.7782C267.225 98.7782 267.88 98.686 268.361 98.471C268.054 98.2048 268.013 97.6825 268.013 96.8121V86.3571C268.013 85.3331 267.972 84.2476 267.86 83.326C267.01 83.326 266.119 83.4387 265.75 83.5513C265.924 84.7903 265.965 85.5993 265.965 86.6847V97.4265Z" fill="black"/>
<path d="M278.12 90.9645C278.12 87.145 280.189 84.5542 283.159 84.5542C284.92 84.5542 286.231 85.4861 286.753 86.8173C287.787 86.8173 288.412 86.6022 288.412 85.9878C288.412 84.9843 286.558 83.305 283.24 83.305C278.745 83.305 275.909 86.5613 275.909 91.2922C275.909 95.7466 278.622 98.7981 283.025 98.7981C285.452 98.7981 287.541 97.7741 288.524 96.3507L288.197 96.1562C288.043 96.0742 287.869 95.9821 287.736 95.9821C287.06 95.9821 286.476 97.5591 283.179 97.5591C280.148 97.5591 278.12 94.8659 278.12 90.9645Z" fill="black"/>
<path d="M297.249 95.1731C296.204 95.1731 295.528 95.4803 295.528 96.1971C295.528 97.2723 297.249 98.7981 300.433 98.7981C303.864 98.7981 305.83 97.1392 305.83 94.6509C305.83 89.6128 297.689 90.8109 297.689 87.1859C297.689 85.7318 299 84.5542 300.72 84.5542C302.184 84.5542 303.229 85.4656 303.649 86.6227C304.734 86.6227 305.369 86.4486 305.369 85.7933C305.369 84.8102 303.71 83.305 300.812 83.305C297.556 83.305 295.723 85.056 295.723 87.319C295.723 92.1011 303.802 90.9645 303.802 94.9171C303.802 96.5965 302.359 97.5591 300.546 97.5591C298.867 97.5591 297.73 96.6579 297.249 95.1731Z" fill="black"/>
</svg>
