<svg width="512" height="513" viewBox="0 0 512 513" fill="none" xmlns="http://www.w3.org/2000/svg">
<g clip-path="url(#clip0_7788_10491)">
<path d="M404.828 184.318C407.272 183.369 411.191 182.786 416.584 182.567V178.082C410.31 178.519 400.76 178.737 387.932 178.737C375.979 178.737 366.503 178.519 359.506 178.082V182.567C364.899 182.786 368.818 183.369 371.262 184.318C373.706 185.267 375.381 187.015 376.289 189.561C377.204 192.114 377.662 196.197 377.662 201.808V246.986H398.428V201.808C398.428 196.197 398.886 192.114 399.8 189.561C400.708 187.015 402.384 185.267 404.828 184.318Z" fill="#004358"/>
<path d="M398.428 294.698H377.662V312.892C377.662 318.51 377.204 322.592 376.289 325.139C375.381 327.692 373.706 329.443 371.262 330.392C368.818 331.341 364.899 331.924 359.506 332.143V336.618C366.503 336.181 375.979 335.962 387.932 335.962C400.835 335.962 410.385 336.181 416.584 336.618V332.143C411.191 331.924 407.272 331.341 404.828 330.392C402.384 329.443 400.708 327.692 399.8 325.139C398.886 322.592 398.428 318.51 398.428 312.892V294.698Z" fill="#004358"/>
<path d="M304.835 294.698H284.068V312.892C284.068 318.51 283.611 322.592 282.696 325.139C281.788 327.692 280.112 329.443 277.668 330.392C275.224 331.341 271.305 331.924 265.912 332.143V336.618C272.186 336.181 281.737 335.962 294.564 335.962C306.661 335.962 316.136 336.181 322.99 336.618V332.143C317.597 331.924 313.679 331.341 311.235 330.392C308.791 329.443 307.115 327.692 306.207 325.139C305.292 322.592 304.835 318.51 304.835 312.892V294.698Z" fill="#004358"/>
<path d="M284.068 246.986H304.835V201.808C304.835 196.197 305.292 192.114 306.207 189.561C307.115 187.015 308.791 185.267 311.235 184.318C313.679 183.369 317.597 182.786 322.99 182.567V178.082C316.136 178.519 306.661 178.737 294.564 178.737C281.662 178.737 272.111 178.519 265.912 178.082V182.567C271.305 182.786 275.224 183.369 277.668 184.318C280.112 185.267 281.788 187.015 282.696 189.561C283.611 192.114 284.068 196.197 284.068 201.808V246.986Z" fill="#004358"/>
<path d="M228.956 246.986H208.19V201.808C208.19 196.197 207.732 192.114 206.817 189.561C205.909 187.015 204.234 185.267 201.79 184.318C199.346 183.369 195.427 182.786 190.034 182.567V178.082C197.031 178.519 206.507 178.737 218.46 178.737C231.288 178.737 240.838 178.519 247.112 178.082V182.567C241.719 182.786 237.8 183.369 235.356 184.318C232.912 185.267 231.236 187.015 230.328 189.561C229.414 192.114 228.956 196.197 228.956 201.808V246.986Z" fill="#004358"/>
<path d="M135.363 246.986V201.808C135.363 196.197 135.82 192.114 136.735 189.561C137.643 187.015 139.319 185.267 141.763 184.318C144.207 183.369 148.125 182.786 153.518 182.567V178.082C146.664 178.519 137.189 178.737 125.092 178.737C112.19 178.737 102.639 178.519 96.4404 178.082V182.567C101.833 182.786 105.752 183.369 108.196 184.318C110.64 185.267 112.316 187.015 113.224 189.561C114.139 192.114 114.596 196.197 114.596 201.808V246.986H135.363Z" fill="#004358"/>
<path d="M114.596 294.698V312.892C114.596 318.51 114.139 322.592 113.224 325.139C112.316 327.692 110.64 329.443 108.196 330.392C105.752 331.341 101.833 331.924 96.4404 332.143V336.618C102.714 336.181 112.265 335.962 125.092 335.962C137.189 335.962 146.664 336.181 153.518 336.618V332.143C148.125 331.924 144.207 331.341 141.763 330.392C139.319 329.443 137.643 327.692 136.735 325.139C135.82 322.592 135.363 318.51 135.363 312.892V294.698H114.596Z" fill="#004358"/>
<path d="M208.19 294.698H228.956V312.892C228.956 318.51 229.414 322.592 230.328 325.139C231.236 327.692 232.912 329.443 235.356 330.392C237.8 331.341 241.719 331.924 247.112 332.143V336.618C240.913 336.181 231.363 335.962 218.46 335.962C206.507 335.962 197.031 336.181 190.034 336.618V332.143C195.427 331.924 199.346 331.341 201.79 330.392C204.234 329.443 205.909 327.692 206.817 325.139C207.732 322.592 208.19 318.51 208.19 312.892V294.698Z" fill="#004358"/>
<path d="M122.065 274.926C122.065 276.083 122.464 276.278 122.925 276.278C123.334 276.278 124.01 276.185 124.492 275.97C124.164 275.704 124.123 275.182 124.123 274.312V263.856C124.123 262.832 124.072 261.768 123.969 260.846C123.14 260.846 122.29 260.959 121.921 261.051C122.044 262.29 122.065 263.099 122.065 264.184V267.809H114.385V263.856C114.385 262.832 114.344 261.768 114.231 260.846C113.361 260.846 112.49 260.959 112.122 261.051C112.296 262.29 112.337 263.099 112.337 264.184V274.926C112.337 276.083 112.705 276.278 113.166 276.278C113.535 276.278 114.17 276.185 114.63 275.97C114.415 275.704 114.385 275.182 114.385 274.312V269.007H122.065V274.926Z" fill="#004358"/>
<path d="M140.947 268.946C142.094 268.946 142.299 268.731 142.299 268.444C142.299 268.208 142.227 267.83 141.992 267.574C141.725 267.696 141.203 267.727 140.333 267.727H135.704C135.377 267.727 135.049 267.727 134.742 267.748V263.928C134.742 263.314 134.721 262.73 134.68 262.157C135.049 262.136 135.418 262.136 135.837 262.136H141.51C142.647 262.136 142.842 261.921 142.842 261.614C142.842 261.378 142.77 261 142.555 260.723C142.299 260.897 141.746 260.918 140.875 260.918H135.51C134.486 260.918 133.39 260.959 132.479 261.071C132.653 262.29 132.694 263.14 132.694 264.235V275.12C132.694 275.581 132.786 276.063 132.888 276.339C134.138 276.206 134.947 276.185 136.032 276.185H141.705C142.862 276.185 143.057 275.95 143.057 275.663C143.057 275.407 142.995 275.008 142.749 274.731C142.493 274.946 141.971 274.967 141.091 274.967H135.704C135.377 274.967 135.069 274.967 134.742 274.987V268.966C135.162 268.946 135.571 268.946 136.032 268.946H140.947Z" fill="#004358"/>
<path d="M161.274 274.926C161.734 276.083 162.236 276.278 162.717 276.278C163.158 276.278 163.834 276.185 164.223 275.97C163.834 275.704 163.567 275.202 163.219 274.312L159.092 263.856C158.683 262.832 158.243 261.768 157.782 260.846C156.891 260.846 156.041 260.959 155.693 261.051C155.386 262.249 155.017 263.334 154.669 264.184L150.429 274.926C150.255 275.407 150.194 275.704 150.194 275.909C150.194 276.185 150.388 276.278 150.634 276.278C150.982 276.278 151.546 276.185 152.027 275.97C152.027 275.622 152.16 275.1 152.467 274.312L153.44 271.721H160.014L161.274 274.926ZM157.065 264.184L159.533 270.492H153.921L156.696 263.273C156.829 263.56 156.932 263.856 157.065 264.184Z" fill="#004358"/>
<path d="M180.177 276.186C181.324 276.186 181.508 275.951 181.508 275.664C181.508 275.408 181.436 275.008 181.221 274.732C180.955 274.947 180.433 274.967 179.562 274.967H174.391C174.063 274.967 173.756 274.967 173.429 274.988V263.857C173.429 262.833 173.388 261.748 173.275 260.826C172.425 260.826 171.534 260.939 171.166 261.051C171.34 262.29 171.381 263.099 171.381 264.185V275.121C171.381 275.582 171.463 276.063 171.575 276.34C172.824 276.207 173.623 276.186 174.719 276.186H180.177Z" fill="#004358"/>
<path d="M197.431 262.136C198.568 262.136 198.762 261.901 198.762 261.593C198.762 261.348 198.701 260.959 198.475 260.651C198.219 260.877 197.667 260.918 196.796 260.918H189.075C188.051 260.918 186.955 260.959 186.044 261.071C186.044 261.522 186.147 262.003 186.259 262.29C187.478 262.157 188.307 262.136 189.403 262.136H191.318C191.389 262.853 191.389 263.447 191.389 264.184V274.926C191.389 276.083 191.799 276.278 192.26 276.278C192.669 276.278 193.325 276.185 193.806 275.97C193.499 275.704 193.437 275.182 193.437 274.312V263.856C193.437 263.273 193.417 262.71 193.396 262.136H197.431Z" fill="#004358"/>
<path d="M215.914 274.926C215.914 276.083 216.303 276.278 216.764 276.278C217.174 276.278 217.85 276.185 218.331 275.97C218.003 275.704 217.962 275.182 217.962 274.312V263.856C217.962 262.832 217.921 261.768 217.809 260.846C216.979 260.846 216.129 260.959 215.761 261.051C215.894 262.29 215.914 263.099 215.914 264.184V267.809H208.234V263.856C208.234 262.832 208.183 261.768 208.081 260.846C207.21 260.846 206.33 260.959 205.961 261.051C206.135 262.29 206.176 263.099 206.176 264.184V274.926C206.176 276.083 206.555 276.278 207.005 276.278C207.384 276.278 208.009 276.185 208.47 275.97C208.255 275.704 208.234 275.182 208.234 274.312V269.007H215.914V274.926Z" fill="#004358"/>
<path d="M246.767 274.926C246.767 276.083 247.156 276.278 247.617 276.278C248.027 276.278 248.703 276.185 249.184 275.97C248.856 275.704 248.815 275.182 248.815 274.312V263.856C248.815 262.832 248.774 261.768 248.662 260.846C247.832 260.846 246.982 260.959 246.614 261.051C246.737 262.29 246.767 263.099 246.767 264.184V267.809H239.087V263.856C239.087 262.832 239.036 261.768 238.934 260.846C238.053 260.846 237.183 260.959 236.814 261.051C236.988 262.29 237.029 263.099 237.029 264.184V274.926C237.029 276.083 237.398 276.278 237.859 276.278C238.227 276.278 238.862 276.185 239.323 275.97C239.108 275.704 239.087 275.182 239.087 274.312V269.007H246.767V274.926Z" fill="#004358"/>
<path d="M265.64 268.946C266.797 268.946 266.991 268.731 266.991 268.444C266.991 268.208 266.92 267.83 266.684 267.574C266.418 267.696 265.896 267.727 265.025 267.727H260.397C260.069 267.727 259.741 267.727 259.444 267.748V263.928C259.444 263.314 259.414 262.73 259.373 262.157C259.741 262.136 260.12 262.136 260.53 262.136H266.203C267.339 262.136 267.534 261.921 267.534 261.614C267.534 261.378 267.473 261 267.247 260.723C266.991 260.897 266.438 260.918 265.568 260.918H260.202C259.178 260.918 258.083 260.959 257.171 261.071C257.345 262.29 257.386 263.14 257.386 264.235V275.12C257.386 275.581 257.478 276.063 257.581 276.339C258.83 276.206 259.639 276.185 260.724 276.185H266.397C267.555 276.185 267.749 275.95 267.749 275.663C267.749 275.407 267.688 275.008 267.442 274.731C267.186 274.946 266.664 274.967 265.793 274.967H260.397C260.069 274.967 259.762 274.967 259.444 274.987V268.966C259.854 268.946 260.264 268.946 260.724 268.946H265.64Z" fill="#004358"/>
<path d="M275.654 270.338C275.654 273.902 278.091 276.298 281.716 276.298C285.515 276.298 288.086 273.769 288.086 270.062V263.856C288.086 262.832 288.045 261.768 287.932 260.846C287.103 260.846 286.253 260.959 285.884 261.051C286.017 262.29 286.038 263.099 286.038 264.184V270.256C286.038 273.113 284.358 275.059 281.891 275.059C279.402 275.059 277.702 273.093 277.702 270.216V263.856C277.702 262.832 277.661 261.768 277.549 260.846C276.678 260.846 275.808 260.959 275.429 261.051C275.603 262.29 275.654 263.099 275.654 264.184V270.338Z" fill="#004358"/>
<path d="M296.636 274.926C296.636 276.083 297.015 276.278 297.465 276.278C297.844 276.278 298.469 276.186 298.93 275.971C298.715 275.705 298.694 275.182 298.694 274.312V269.95C299.104 269.929 299.524 269.929 299.974 269.929H301.336L304.47 274.885C305.176 276.104 305.78 276.278 306.282 276.278C306.743 276.278 307.327 276.186 307.726 275.971C307.265 275.684 306.876 275.141 306.303 274.251L303.364 269.643C305.432 269.008 306.722 267.42 306.722 265.321C306.722 262.71 304.644 260.918 301.572 260.918H298.387C297.558 260.939 296.769 261.02 296.421 261.113C296.595 262.352 296.636 263.161 296.636 264.256V274.926ZM298.643 262.137H301.398C303.312 262.137 304.623 263.488 304.623 265.454C304.623 267.379 303.364 268.711 301.479 268.711H299.647C299.319 268.711 299.001 268.711 298.694 268.731V263.929C298.694 263.335 298.674 262.731 298.643 262.137Z" fill="#004358"/>
<path d="M314.864 274.927C314.864 276.084 315.253 276.278 315.713 276.278C316.123 276.278 316.778 276.186 317.26 275.971C316.952 275.705 316.912 275.183 316.912 274.312V263.857C316.912 262.833 316.871 261.748 316.758 260.826C315.908 260.826 315.007 260.939 314.638 261.051C314.812 262.29 314.864 263.099 314.864 264.185V274.927Z" fill="#004358"/>
<path d="M326.404 272.673C325.349 272.673 324.674 272.98 324.674 273.697C324.674 274.772 326.404 276.298 329.589 276.298C333.009 276.298 334.975 274.639 334.975 272.151C334.975 267.113 326.834 268.311 326.834 264.686C326.834 263.232 328.145 262.054 329.876 262.054C331.33 262.054 332.384 262.965 332.794 264.122C333.89 264.122 334.514 263.948 334.514 263.293C334.514 262.31 332.855 260.805 329.957 260.805C326.711 260.805 324.878 262.556 324.878 264.819C324.878 269.601 332.948 268.464 332.948 272.417C332.948 274.096 331.504 275.059 329.691 275.059C328.012 275.059 326.885 274.158 326.404 272.673Z" fill="#004358"/>
<path d="M352.71 262.136C353.847 262.136 354.042 261.901 354.042 261.593C354.042 261.348 353.98 260.959 353.765 260.651C353.499 260.877 352.956 260.918 352.086 260.918H344.355C343.331 260.918 342.245 260.959 341.324 261.071C341.324 261.522 341.436 262.003 341.539 262.29C342.767 262.157 343.597 262.136 344.682 262.136H346.607C346.669 262.853 346.669 263.447 346.669 264.184V274.926C346.669 276.083 347.089 276.278 347.539 276.278C347.959 276.278 348.614 276.185 349.096 275.97C348.788 275.704 348.717 275.182 348.717 274.312V263.856C348.717 263.273 348.696 262.71 348.676 262.136H352.71Z" fill="#004358"/>
<path d="M361.465 274.927C361.465 276.084 361.854 276.278 362.315 276.278C362.725 276.278 363.38 276.186 363.861 275.971C363.554 275.705 363.513 275.183 363.513 274.312V263.857C363.513 262.833 363.472 261.748 363.36 260.826C362.51 260.826 361.619 260.939 361.25 261.051C361.424 262.29 361.465 263.099 361.465 264.185V274.927Z" fill="#004358"/>
<path d="M373.62 268.464C373.62 264.645 375.689 262.054 378.659 262.054C380.42 262.054 381.731 262.986 382.253 264.317C383.287 264.317 383.912 264.102 383.912 263.488C383.912 262.484 382.058 260.805 378.74 260.805C374.245 260.805 371.409 264.061 371.409 268.792C371.409 273.247 374.122 276.298 378.525 276.298C380.952 276.298 383.041 275.274 384.024 273.851L383.697 273.656C383.543 273.574 383.369 273.482 383.236 273.482C382.56 273.482 381.976 275.059 378.679 275.059C375.648 275.059 373.62 272.366 373.62 268.464Z" fill="#004358"/>
<path d="M392.749 272.673C391.704 272.673 391.028 272.98 391.028 273.697C391.028 274.772 392.749 276.298 395.933 276.298C399.364 276.298 401.33 274.639 401.33 272.151C401.33 267.113 393.189 268.311 393.189 264.686C393.189 263.232 394.5 262.054 396.22 262.054C397.684 262.054 398.729 262.966 399.149 264.123C400.234 264.123 400.869 263.949 400.869 263.293C400.869 262.31 399.21 260.805 396.312 260.805C393.056 260.805 391.223 262.556 391.223 264.819C391.223 269.601 399.302 268.464 399.302 272.417C399.302 274.096 397.859 275.059 396.046 275.059C394.367 275.059 393.23 274.158 392.749 272.673Z" fill="#004358"/>
</g>
<defs>
<clipPath id="clip0_7788_10491">
<rect width="512" height="512" fill="white" transform="translate(0 0.5)"/>
</clipPath>
</defs>
</svg>
