<svg width="512" height="512" viewBox="0 0 512 512" fill="none" xmlns="http://www.w3.org/2000/svg">
<path d="M478.375 146.501C482.039 145.079 487.914 144.204 496 143.876V137.151C486.594 137.806 472.274 138.134 453.042 138.134C435.12 138.134 420.913 137.806 410.422 137.151V143.876C418.508 144.204 424.383 145.079 428.047 146.501C431.711 147.924 434.224 150.544 435.585 154.362C436.957 158.19 437.643 164.311 437.643 172.725V240.462H468.779V172.725C468.779 164.311 469.465 158.19 470.836 154.362C472.198 150.544 474.71 147.924 478.375 146.501Z" fill="#004358"/>
<path d="M468.779 311.996H437.643V339.275C437.643 347.699 436.957 353.82 435.585 357.638C434.224 361.466 431.711 364.091 428.047 365.514C424.383 366.936 418.508 367.812 410.422 368.139V374.848C420.913 374.193 435.12 373.866 453.042 373.866C472.387 373.866 486.706 374.193 496 374.848V368.139C487.914 367.812 482.039 366.936 478.375 365.514C474.71 364.091 472.198 361.466 470.836 357.638C469.465 353.82 468.779 347.699 468.779 339.275V311.996Z" fill="#004358"/>
<path d="M328.451 311.996H297.315V339.275C297.315 347.699 296.629 353.82 295.258 357.638C293.897 361.466 291.384 364.091 287.72 365.514C284.055 366.936 278.18 367.812 270.094 368.139V374.848C279.501 374.193 293.82 373.866 313.052 373.866C331.189 373.866 345.396 374.193 355.672 374.848V368.139C347.586 367.812 341.711 366.936 338.047 365.514C334.383 364.091 331.87 361.466 330.509 357.638C329.137 353.82 328.451 347.699 328.451 339.275V311.996Z" fill="#004358"/>
<path d="M297.315 240.462H328.451V172.725C328.451 164.311 329.137 158.19 330.509 154.362C331.87 150.544 334.383 147.924 338.047 146.501C341.711 145.079 347.586 144.204 355.672 143.876V137.151C345.396 137.806 331.189 138.134 313.052 138.134C293.707 138.134 279.388 137.806 270.094 137.151V143.876C278.18 144.204 284.055 145.079 287.72 146.501C291.384 147.924 293.897 150.544 295.258 154.362C296.629 158.19 297.315 164.311 297.315 172.725V240.462Z" fill="#004358"/>
<path d="M214.685 240.462H183.549V172.725C183.549 164.311 182.863 158.19 181.491 154.362C180.13 150.544 177.617 147.924 173.953 146.501C170.289 145.079 164.414 144.204 156.328 143.876V137.151C166.819 137.806 181.026 138.134 198.948 138.134C218.18 138.134 232.5 137.806 241.906 137.151V143.876C233.82 144.204 227.945 145.079 224.28 146.501C220.616 147.924 218.103 150.544 216.742 154.362C215.371 158.19 214.685 164.311 214.685 172.725V240.462Z" fill="#004358"/>
<path d="M74.3572 240.462V172.725C74.3572 164.311 75.043 158.19 76.4145 154.362C77.7759 150.544 80.2887 147.924 83.9529 146.501C87.6172 145.079 93.4923 144.204 101.578 143.876V137.151C91.302 137.806 77.0952 138.134 58.9581 138.134C39.6131 138.134 25.2938 137.806 16 137.151V143.876C24.086 144.204 29.9611 145.079 33.6254 146.501C37.2897 147.924 39.8025 150.544 41.1638 154.362C42.5353 158.19 43.2211 164.311 43.2211 172.725V240.462H74.3572Z" fill="#004358"/>
<path d="M43.2211 311.996V339.275C43.2211 347.699 42.5353 353.82 41.1638 357.638C39.8025 361.466 37.2897 364.091 33.6254 365.514C29.9611 366.936 24.086 367.812 16 368.139V374.848C25.4063 374.193 39.7257 373.866 58.9581 373.866C77.0952 373.866 91.302 374.193 101.578 374.848V368.139C93.4923 367.812 87.6172 366.936 83.9529 365.514C80.2887 364.091 77.7759 361.466 76.4145 357.638C75.043 353.82 74.3572 347.699 74.3572 339.275V311.996H43.2211Z" fill="#004358"/>
<path d="M183.549 311.996H214.685V339.275C214.685 347.699 215.371 353.82 216.742 357.638C218.103 361.466 220.616 364.091 224.28 365.514C227.945 366.936 233.82 367.812 241.906 368.139V374.848C232.612 374.193 218.293 373.866 198.948 373.866C181.026 373.866 166.819 374.193 156.328 374.848V368.139C164.414 367.812 170.289 366.936 173.953 365.514C177.617 364.091 180.13 361.466 181.491 357.638C182.863 353.82 183.549 347.699 183.549 339.275V311.996Z" fill="#004358"/>
<path d="M54.4186 282.351C54.4186 284.086 55.0174 284.378 55.7083 284.378C56.3224 284.378 57.3357 284.24 58.0573 283.917C57.566 283.518 57.5046 282.735 57.5046 281.43V265.755C57.5046 264.219 57.4278 262.622 57.2743 261.241C56.0307 261.241 54.7564 261.41 54.2037 261.548C54.3879 263.405 54.4186 264.618 54.4186 266.246V271.681H42.9038V265.755C42.9038 264.219 42.8424 262.622 42.6735 261.241C41.3685 261.241 40.0635 261.41 39.5107 261.548C39.7717 263.405 39.8331 264.618 39.8331 266.246V282.351C39.8331 284.086 40.3859 284.378 41.0767 284.378C41.6295 284.378 42.5814 284.24 43.2723 283.917C42.9498 283.518 42.9038 282.735 42.9038 281.43V273.477H54.4186V282.351Z" fill="#004358"/>
<path d="M82.7298 273.385C84.4493 273.385 84.7564 273.063 84.7564 272.633C84.7564 272.28 84.6489 271.712 84.2958 271.328C83.8966 271.512 83.1136 271.558 81.8086 271.558H74.869C74.3777 271.558 73.8864 271.558 73.4258 271.589V265.862C73.4258 264.941 73.3951 264.066 73.3336 263.206C73.8864 263.175 74.4391 263.175 75.0686 263.175H83.5742C85.2784 263.175 85.5701 262.853 85.5701 262.392C85.5701 262.039 85.4626 261.471 85.1402 261.056C84.7564 261.317 83.9273 261.348 82.6223 261.348H74.5773C73.0419 261.348 71.3992 261.41 70.0327 261.578C70.2937 263.405 70.3551 264.68 70.3551 266.323V282.643C70.3551 283.334 70.4933 284.055 70.6468 284.47C72.5199 284.27 73.7328 284.24 75.3603 284.24H83.8659C85.6008 284.24 85.8925 283.887 85.8925 283.457C85.8925 283.073 85.8004 282.474 85.4319 282.06C85.0481 282.382 84.2651 282.413 82.9447 282.413H74.869C74.3777 282.413 73.9171 282.413 73.4258 282.443V273.416C74.0552 273.385 74.6694 273.385 75.3603 273.385H82.7298Z" fill="#004358"/>
<path d="M113.206 282.351C113.897 284.086 114.649 284.378 115.371 284.378C116.031 284.378 117.044 284.24 117.627 283.917C117.044 283.518 116.645 282.766 116.123 281.43L109.936 265.755C109.321 264.219 108.661 262.622 107.97 261.241C106.635 261.241 105.36 261.41 104.838 261.548C104.378 263.344 103.825 264.971 103.303 266.246L96.9468 282.351C96.6858 283.073 96.5936 283.518 96.5936 283.825C96.5936 284.24 96.8853 284.378 97.2538 284.378C97.7758 284.378 98.6202 284.24 99.3418 283.917C99.3418 283.395 99.5414 282.612 100.002 281.43L101.461 277.546H111.317L113.206 282.351ZM106.896 266.246L110.596 275.703H102.182L106.343 264.879C106.542 265.309 106.696 265.755 106.896 266.246Z" fill="#004358"/>
<path d="M141.548 284.241C143.267 284.241 143.544 283.887 143.544 283.458C143.544 283.074 143.436 282.475 143.114 282.06C142.715 282.383 141.932 282.414 140.627 282.414H132.873C132.382 282.414 131.921 282.414 131.43 282.444V265.755C131.43 264.22 131.369 262.593 131.2 261.211C129.925 261.211 128.59 261.38 128.037 261.549C128.298 263.406 128.359 264.619 128.359 266.247V282.644C128.359 283.335 128.482 284.056 128.651 284.471C130.524 284.271 131.722 284.241 133.365 284.241H141.548Z" fill="#004358"/>
<path d="M167.418 263.175C169.122 263.175 169.413 262.822 169.413 262.361C169.413 261.993 169.321 261.41 168.984 260.949C168.6 261.287 167.771 261.348 166.466 261.348H154.889C153.354 261.348 151.711 261.41 150.345 261.578C150.345 262.254 150.498 262.976 150.667 263.405C152.494 263.206 153.738 263.175 155.381 263.175H158.252C158.359 264.25 158.359 265.14 158.359 266.246V282.351C158.359 284.086 158.973 284.378 159.664 284.378C160.278 284.378 161.261 284.24 161.983 283.917C161.522 283.518 161.43 282.735 161.43 281.43V265.755C161.43 264.879 161.399 264.035 161.368 263.175H167.418Z" fill="#004358"/>
<path d="M195.13 282.351C195.13 284.086 195.713 284.378 196.404 284.378C197.018 284.378 198.032 284.24 198.753 283.917C198.262 283.518 198.201 282.735 198.201 281.43V265.755C198.201 264.219 198.139 262.622 197.97 261.241C196.727 261.241 195.452 261.41 194.9 261.548C195.099 263.405 195.13 264.618 195.13 266.246V271.681H183.615V265.755C183.615 264.219 183.538 262.622 183.385 261.241C182.08 261.241 180.759 261.41 180.207 261.548C180.468 263.405 180.529 264.618 180.529 266.246V282.351C180.529 284.086 181.097 284.378 181.773 284.378C182.341 284.378 183.277 284.24 183.968 283.917C183.646 283.518 183.615 282.735 183.615 281.43V273.477H195.13V282.351Z" fill="#004358"/>
<path d="M241.389 282.351C241.389 284.086 241.972 284.378 242.663 284.378C243.277 284.378 244.291 284.24 245.012 283.917C244.521 283.518 244.46 282.735 244.46 281.43V265.755C244.46 264.219 244.398 262.622 244.229 261.241C242.986 261.241 241.711 261.41 241.159 261.548C241.343 263.405 241.389 264.618 241.389 266.246V271.681H229.874V265.755C229.874 264.219 229.797 262.622 229.644 261.241C228.323 261.241 227.018 261.41 226.466 261.548C226.727 263.405 226.788 264.618 226.788 266.246V282.351C226.788 284.086 227.341 284.378 228.032 284.378C228.584 284.378 229.536 284.24 230.227 283.917C229.905 283.518 229.874 282.735 229.874 281.43V273.477H241.389V282.351Z" fill="#004358"/>
<path d="M269.685 273.385C271.42 273.385 271.711 273.063 271.711 272.633C271.711 272.28 271.604 271.712 271.251 271.328C270.852 271.512 270.069 271.558 268.764 271.558H261.824C261.333 271.558 260.841 271.558 260.396 271.589V265.862C260.396 264.941 260.35 264.066 260.289 263.206C260.841 263.175 261.409 263.175 262.023 263.175H270.529C272.233 263.175 272.525 262.853 272.525 262.392C272.525 262.039 272.433 261.471 272.095 261.056C271.711 261.317 270.882 261.348 269.577 261.348H261.532C259.997 261.348 258.354 261.41 256.988 261.578C257.249 263.405 257.31 264.68 257.31 266.323V282.643C257.31 283.334 257.448 284.055 257.602 284.47C259.475 284.27 260.688 284.24 262.315 284.24H270.821C272.556 284.24 272.847 283.887 272.847 283.457C272.847 283.073 272.755 282.474 272.387 282.06C272.003 282.382 271.22 282.413 269.915 282.413H261.824C261.333 282.413 260.872 282.413 260.396 282.443V273.416C261.01 273.385 261.624 273.385 262.315 273.385H269.685Z" fill="#004358"/>
<path d="M284.7 275.473C284.7 280.816 288.354 284.409 293.789 284.409C299.485 284.409 303.339 280.616 303.339 275.058V265.755C303.339 264.219 303.277 262.622 303.108 261.241C301.865 261.241 300.591 261.41 300.038 261.548C300.237 263.405 300.268 264.618 300.268 266.246V275.35C300.268 279.634 297.75 282.551 294.05 282.551C290.319 282.551 287.771 279.603 287.771 275.289V265.755C287.771 264.219 287.709 262.622 287.54 261.241C286.235 261.241 284.93 261.41 284.362 261.548C284.623 263.405 284.7 264.618 284.7 266.246V275.473Z" fill="#004358"/>
<path d="M316.158 282.352C316.158 284.087 316.726 284.378 317.402 284.378C317.97 284.378 318.907 284.24 319.597 283.918C319.275 283.519 319.244 282.736 319.244 281.431V274.89C319.858 274.86 320.488 274.86 321.163 274.86H323.205L327.904 282.29C328.963 284.117 329.869 284.378 330.621 284.378C331.312 284.378 332.187 284.24 332.786 283.918C332.095 283.488 331.511 282.674 330.652 281.339L326.245 274.43C329.347 273.478 331.281 271.098 331.281 267.951C331.281 264.036 328.164 261.349 323.559 261.349H318.784C317.54 261.379 316.358 261.502 315.836 261.64C316.097 263.498 316.158 264.711 316.158 266.354V282.352ZM319.168 263.176H323.298C326.169 263.176 328.134 265.202 328.134 268.15C328.134 271.037 326.245 273.033 323.42 273.033H320.672C320.181 273.033 319.705 273.033 319.244 273.063V265.863C319.244 264.972 319.214 264.066 319.168 263.176Z" fill="#004358"/>
<path d="M343.487 282.352C343.487 284.087 344.071 284.379 344.762 284.379C345.376 284.379 346.359 284.241 347.08 283.918C346.62 283.519 346.558 282.736 346.558 281.431V265.755C346.558 264.22 346.497 262.593 346.328 261.211C345.054 261.211 343.702 261.38 343.15 261.549C343.411 263.406 343.487 264.619 343.487 266.247V282.352Z" fill="#004358"/>
<path d="M360.791 278.973C359.209 278.973 358.196 279.434 358.196 280.508C358.196 282.121 360.791 284.408 365.565 284.408C370.693 284.408 373.641 281.921 373.641 278.19C373.641 270.636 361.435 272.433 361.435 266.998C361.435 264.818 363.401 263.052 365.995 263.052C368.176 263.052 369.757 264.418 370.371 266.153C372.014 266.153 372.95 265.892 372.95 264.91C372.95 263.436 370.463 261.179 366.118 261.179C361.251 261.179 358.503 263.804 358.503 267.197C358.503 274.367 370.601 272.663 370.601 278.589C370.601 281.107 368.436 282.55 365.719 282.55C363.201 282.55 361.512 281.199 360.791 278.973Z" fill="#004358"/>
<path d="M400.232 263.175C401.937 263.175 402.228 262.822 402.228 262.361C402.228 261.993 402.136 261.41 401.814 260.949C401.415 261.287 400.601 261.348 399.296 261.348H387.704C386.169 261.348 384.541 261.41 383.16 261.578C383.16 262.254 383.329 262.976 383.482 263.405C385.324 263.206 386.568 263.175 388.195 263.175H391.082C391.174 264.25 391.174 265.14 391.174 266.246V282.351C391.174 284.086 391.803 284.378 392.479 284.378C393.108 284.378 394.091 284.24 394.813 283.917C394.352 283.518 394.245 282.735 394.245 281.43V265.755C394.245 264.879 394.214 264.035 394.183 263.175H400.232Z" fill="#004358"/>
<path d="M413.359 282.352C413.359 284.087 413.942 284.379 414.633 284.379C415.247 284.379 416.23 284.241 416.951 283.918C416.491 283.519 416.429 282.736 416.429 281.431V265.755C416.429 264.22 416.368 262.593 416.199 261.211C414.925 261.211 413.589 261.38 413.036 261.549C413.297 263.406 413.359 264.619 413.359 266.247V282.352Z" fill="#004358"/>
<path d="M431.583 272.663C431.583 266.937 434.685 263.052 439.137 263.052C441.778 263.052 443.743 264.449 444.526 266.445C446.077 266.445 447.013 266.123 447.013 265.202C447.013 263.697 444.234 261.179 439.26 261.179C432.52 261.179 428.267 266.062 428.267 273.155C428.267 279.833 432.336 284.409 438.938 284.409C442.576 284.409 445.708 282.873 447.182 280.739L446.691 280.447C446.461 280.325 446.2 280.186 446 280.186C444.987 280.186 444.112 282.551 439.168 282.551C434.623 282.551 431.583 278.513 431.583 272.663Z" fill="#004358"/>
<path d="M460.263 278.974C458.697 278.974 457.684 279.434 457.684 280.509C457.684 282.121 460.263 284.409 465.038 284.409C470.181 284.409 473.129 281.921 473.129 278.191C473.129 270.637 460.923 272.433 460.923 266.998C460.923 264.818 462.888 263.052 465.468 263.052C467.663 263.052 469.229 264.419 469.859 266.154C471.486 266.154 472.438 265.893 472.438 264.91C472.438 263.436 469.951 261.179 465.606 261.179C460.724 261.179 457.975 263.805 457.975 267.198C457.975 274.368 470.089 272.663 470.089 278.59C470.089 281.108 467.924 282.551 465.207 282.551C462.689 282.551 460.985 281.2 460.263 278.974Z" fill="#004358"/>
</svg>
